<svg width="74" height="73" viewBox="0 0 74 73" fill="none" xmlns="http://www.w3.org/2000/svg">
<rect x="0.5" y="0.5" width="73" height="72" rx="36" fill="black"/>
<rect x="0.5" y="0.5" width="73" height="72" rx="36" stroke="white"/>
<g filter="url(#filter0_d_389_1322)">
<path d="M45.1564 27.843L41.4732 38.8905C41.2727 39.4919 40.935 40.0384 40.4867 40.4867C40.0384 40.935 39.4919 41.2727 38.8905 41.4732L27.843 45.1564L31.5262 34.1089C31.7267 33.5075 32.0644 32.961 32.5127 32.5127C32.961 32.0644 33.5075 31.7267 34.1089 31.5262L45.1564 27.843Z" stroke="white" stroke-linecap="round" stroke-linejoin="round"/>
<path d="M36.4997 56.9163C47.7755 56.9163 56.9163 47.7755 56.9163 36.4997C56.9163 25.2239 47.7755 16.083 36.4997 16.083C25.2239 16.083 16.083 25.2239 16.083 36.4997C16.083 47.7755 25.2239 56.9163 36.4997 56.9163Z" stroke="white" stroke-linecap="round" stroke-linejoin="round"/>
</g>
<defs>
<filter id="filter0_d_389_1322" x="2" y="6" width="69" height="69" filterUnits="userSpaceOnUse" color-interpolation-filters="sRGB">
<feFlood flood-opacity="0" result="BackgroundImageFix"/>
<feColorMatrix in="SourceAlpha" type="matrix" values="0 0 0 0 0 0 0 0 0 0 0 0 0 0 0 0 0 0 127 0" result="hardAlpha"/>
<feOffset dy="4"/>
<feGaussianBlur stdDeviation="5"/>
<feComposite in2="hardAlpha" operator="out"/>
<feColorMatrix type="matrix" values="0 0 0 0 0 0 0 0 0 0 0 0 0 0 0 0 0 0 0.25 0"/>
<feBlend mode="normal" in2="BackgroundImageFix" result="effect1_dropShadow_389_1322"/>
<feBlend mode="normal" in="SourceGraphic" in2="effect1_dropShadow_389_1322" result="shape"/>
</filter>
</defs>
</svg>
