<svg width="25" height="24" viewBox="0 0 25 24" fill="none" xmlns="http://www.w3.org/2000/svg">
<path fill-rule="evenodd" clip-rule="evenodd" d="M16.9219 3.24268H8.92188C6.16045 3.24268 3.92188 5.48126 3.92188 8.24268V16.2427C3.92188 19.0041 6.16045 21.2427 8.92188 21.2427H16.9219C19.6833 21.2427 21.9219 19.0041 21.9219 16.2427V8.24268C21.9219 5.48126 19.6833 3.24268 16.9219 3.24268ZM20.1719 16.2427C20.1664 18.0353 18.7145 19.4872 16.9219 19.4927H8.92188C7.12923 19.4872 5.67736 18.0353 5.67188 16.2427V8.24268C5.67736 6.45003 7.12923 4.99817 8.92188 4.99268H16.9219C18.7145 4.99817 20.1664 6.45003 20.1719 8.24268V16.2427ZM17.6719 8.49268C18.2242 8.49268 18.6719 8.04496 18.6719 7.49268C18.6719 6.9404 18.2242 6.49268 17.6719 6.49268C17.1196 6.49268 16.6719 6.9404 16.6719 7.49268C16.6719 8.04496 17.1196 8.49268 17.6719 8.49268ZM12.9219 7.74268C10.4366 7.74268 8.42188 9.7574 8.42188 12.2427C8.42188 14.728 10.4366 16.7427 12.9219 16.7427C15.4072 16.7427 17.4219 14.728 17.4219 12.2427C17.4246 11.0484 16.9513 9.90225 16.1068 9.05776C15.2623 8.21327 14.1162 7.74002 12.9219 7.74268ZM10.1719 12.2427C10.1719 13.7615 11.4031 14.9927 12.9219 14.9927C14.4407 14.9927 15.6719 13.7615 15.6719 12.2427C15.6719 10.7239 14.4407 9.49268 12.9219 9.49268C11.4031 9.49268 10.1719 10.7239 10.1719 12.2427Z" fill="white"/>
</svg>
