<svg width="25" height="24" viewBox="0 0 25 24" fill="none" xmlns="http://www.w3.org/2000/svg">
<path fill-rule="evenodd" clip-rule="evenodd" d="M5.42188 3.24268C4.59345 3.24268 3.92188 3.91425 3.92188 4.74268V19.7427C3.92188 20.5711 4.59345 21.2427 5.42188 21.2427H20.4219C21.2503 21.2427 21.9219 20.5711 21.9219 19.7427V4.74268C21.9219 3.91425 21.2503 3.24268 20.4219 3.24268H5.42188ZM9.44263 7.2454C9.44826 8.20165 8.73248 8.79087 7.8831 8.78665C7.08294 8.78243 6.38545 8.1454 6.38967 7.24681C6.39389 6.40165 7.06185 5.72243 7.92951 5.74212C8.80982 5.76181 9.44826 6.40728 9.44263 7.2454ZM13.2016 10.0044H10.6816H10.6802V18.5643H13.3436V18.3646C13.3436 17.9847 13.3433 17.6047 13.343 17.2246C13.3422 16.2108 13.3413 15.1959 13.3465 14.1824C13.3479 13.9363 13.3591 13.6804 13.4224 13.4455C13.66 12.568 14.449 12.0013 15.3293 12.1406C15.8946 12.2291 16.2686 12.5568 16.4261 13.0898C16.5232 13.423 16.5668 13.7816 16.571 14.129C16.5824 15.1766 16.5808 16.2242 16.5792 17.2719C16.5786 17.6417 16.578 18.0117 16.578 18.3815V18.5629H19.2499V18.3576C19.2499 17.9056 19.2497 17.4537 19.2494 17.0018C19.2489 15.8723 19.2483 14.7428 19.2513 13.6129C19.2527 13.1024 19.1979 12.599 19.0727 12.1054C18.8857 11.3713 18.499 10.7638 17.8704 10.3251C17.4246 10.0129 16.9352 9.81178 16.3882 9.78928C16.3259 9.78669 16.2631 9.7833 16.2 9.77989C15.9203 9.76477 15.636 9.74941 15.3686 9.80334C14.6036 9.95662 13.9315 10.3068 13.4238 10.9241C13.3648 10.9949 13.3071 11.0668 13.221 11.1741L13.2016 11.1984V10.0044ZM6.60352 18.5671H9.2543V10.01H6.60352V18.5671Z" fill="white"/>
</svg>
