<?xml version="1.0" encoding="UTF-8"?>
<svg xmlns="http://www.w3.org/2000/svg" version="1.1" viewBox="0 0 1080 259.39">
  <!-- Generator: Adobe Illustrator 29.1.0, SVG Export Plug-In . SVG Version: 2.1.0 Build 142)  -->
  <defs>
    <style>
      .st0 {
        fill: #63a1cd;
      }

      .st1 {
        fill: #fff;
      }

      .st2 {
        fill: none;
      }

      .st3 {
        display: none;
      }

      .st4 {
        fill: #215d65;
      }
    </style>
  </defs>
  <g id="Layer_2" class="st3">
    <rect y="-414.73" width="1080" height="1080"/>
  </g>
  <g id="Layer_1">
    <path class="st1" d="M963.87,53.78c.35.05,6.08,1.52,6.76,1.73,45.17,14.24,39.92,106.62-4.47,114.85-8.89,1.65-33.26,1.79-42.43.8-1.28-.16-2.57-.32-3.85-.48-.16-38.97-.32-77.94-.48-116.9.42,0,.84,0,1.26,0h43.22ZM943.43,75.02v74.13c5.61,2.89,16.24.27,21.22-3.47,17.32-13.04,17.2-63.3-7.15-70.84-2.31-.71-13.35-2.15-14.07.18Z"/>
    <path class="st1" d="M674.74,99.74h26.61c0-.7,0-1.77,0-3.06,0-10.69,0-17.86,0-28.19,0-4.39,0-10.59,0-15.23h23.68v116.36c-6,0-12.69,0-18.69,0-.59,0-4.39,0-4.99,0,.03-15.07.04-30.14,0-45.21,0-.48,0-2.89,0-3.37l-26.65-.07c.01,16.22.03,32.43.04,48.65h-23.81V53.26h23.81v46.48Z"/>
    <path class="st1" d="M85.71,130.44c1.22,1.95,1.94,7.88,4.07,10.99,5.58,8.18,22.74,10.35,27.95.92,2.12-3.85,2.15-9.85-.39-13.44-3.45-4.87-25.31-11.57-32.08-15.38-20.31-11.45-23.93-39.21-6.28-54.74,16.35-14.4,46.16-10.92,57.46,8.17,1.68,2.84,6.43,12.62,4.3,15.02-1.18,1.34-15.95,6.05-17.96,5.65-5.12-1.03-5.37-12.36-12.13-14.94-5.68-2.17-13.7-2.07-17.15,3.73-5.9,9.92,3.05,14.51,10.79,18.08,16.66,7.67,37.05,11.38,39.43,33.91,3.35,31.81-21.9,43.19-49.67,40.44-15.74-1.56-30.78-19.12-30.12-34.75.5-.99,1.43-1.15,2.35-1.51,2.38-.93,14.94-4.09,16.74-3.71.43.09,2.51,1.27,2.7,1.58Z"/>
    <path class="st1" d="M813.33,148.77v20.84h-69.06c-.02-35.14,0-70.28.05-105.43,0-.29,0-4.99,0-5.29,0,0-.02-2.16-.06-6.13,23.02.16,46.04.33,69.06.49v21.95c-2.82.07-5.65.13-8.47.2-11.93-.07-23.86-.13-35.8-.2v24.53h35.08c.02,7.69.04,15.38.06,23.07-11.77-.04-23.54-.09-35.3-.13v24.92c-.01.39-.02.78-.04,1.18h44.46Z"/>
    <path class="st1" d="M471.6,169.61h-16.23V53.26h41.05c11.41,0,11.51-.32,13.42,0,11.46,1.94,18.79,11.71,19.84,13.15,9.58,13.12,8.87,32.97-1.22,44.54-3.27,3.75-6.95,5.97-9.62,7.27l20.66,48.89c.64.83-.5,2.52-1,2.52h-14.69l-22.42-48.65h-28.61l-1.16,1.16v47.49ZM471.6,68.48v37.53c.13.35.26.7.39,1.05h34.73c.38,0,6.24-2.6,6.95-3.08,10.98-7.37,12.37-24.9.64-32.31-.88-.56-7.11-3.21-7.59-3.21-11.7.01-23.41.02-35.11.03Z"/>
    <path class="st1" d="M318.71,100.88v-47.63h16.99v116.36h-16.99v-54.06h-49.06l-1.13,1.16c-.06,17.63-.12,35.26-.17,52.9h-16.26V53.26h16.26c.06,15.49.12,30.98.17,46.47l1.16,1.16h49.04Z"/>
    <path class="st1" d="M634.34,69.61l-56.94-.39v33.21c14.87-.03,29.73-.06,44.6-.09v15.44c-14.87-.03-29.73-.06-44.6-.09v37.25l56.94-.24v14.91h-74.07c-.06-38.79-.12-77.57-.17-116.36h74.24v16.36Z"/>
    <path class="st1" d="M378.17,69.22v33.21c15.5-.03,30.99-.06,46.49-.09,0,1.47,0,5.96,0,7.43,0,1.69,0,6.33,0,8.02-15.5-.23-30.99-.45-46.49-.68v37.84l57.93-.31v15.08c-24.72-.03-49.43-.06-74.15-.09,0-37.97,0-75.94,0-113.9.02-.82.03-1.64.05-2.45h74.09c0,.56,0,1.12-.01,1.68,0,4.82,0,9.63.01,14.45-19.31-.06-38.62-.11-57.93-.17Z"/>
    <path class="st1" d="M155.77,53.26h54.89c3.01.63,8.12,2.12,13.02,6.04,12.35,9.87,12.2,26.27,12,30.38-.18,3.75-.58,11.8-5.93,19.17-11.79,16.23-37.72,15.52-50.46,15.24-2.99-.07-5.5-.27-7.3-.45v46.21c-5.41-.08-10.81-.16-16.22-.23V53.26ZM171.98,68.84v41.01c14.8,1.88,25.81.64,32.79-.72,2.18-.42,4.36-.94,6.57-2.55,8.91-6.51,9.61-24.62,2.18-32.31-3.09-3.2-7.13-4.7-7.13-4.7-2.11-.79-4.47-1.21-7.21-1.16-9.06.15-18.12.29-27.18.44Z"/>
    <g>
      <path class="st1" d="M135.37,228.29h-5.67v-28.76h-9.99v-5.21h25.62v5.21h-9.97v28.76Z"/>
      <path class="st1" d="M175.38,223.08h15.21v5.2h-20.88v-33.97h20.05v5.21h-14.38v8.78h12.35v5.2h-12.35v9.57Z"/>
      <path class="st1" d="M231.64,198.94c-1.54,0-2.96.28-4.27.84s-2.42,1.37-3.35,2.44c-.93,1.07-1.66,2.38-2.18,3.95-.52,1.57-.79,3.36-.79,5.37s.24,3.75.72,5.27c.48,1.52,1.16,2.78,2.06,3.8.89,1.02,1.99,1.78,3.27,2.3,1.29.52,2.75.77,4.38.77,1.17,0,2.37-.1,3.58-.3s2.36-.5,3.42-.89v5.36c-1.08.34-2.24.61-3.49.8-1.25.2-2.54.29-3.88.29-2.62,0-4.93-.41-6.91-1.23-1.99-.82-3.65-1.98-4.98-3.48-1.33-1.5-2.34-3.29-3.01-5.38-.67-2.09-1.01-4.4-1.01-6.92s.36-4.99,1.08-7.21c.72-2.22,1.75-4.14,3.1-5.76s3.04-2.9,5.06-3.83,4.32-1.4,6.88-1.42c1.31,0,2.55.1,3.72.29,1.17.2,2.23.47,3.17.83v5.28c-1.23-.42-2.38-.72-3.45-.89-1.06-.17-2.1-.25-3.12-.25Z"/>
      <path class="st1" d="M269.92,208.31h14.34v-13.99h5.67v33.97h-5.67v-14.78h-14.34v14.78h-5.66v-33.97h5.66v13.99Z"/>
      <path class="st1" d="M333.42,210.11c2.22,3.47,4.02,6.55,5.41,9.24h.14c-.18-4.42-.28-7.63-.28-9.65v-15.39h5.67v33.97h-5.94l-10.08-15.64c-1.77-2.71-3.61-5.85-5.5-9.42h-.14c.19,4.16.28,7.39.28,9.67v15.39h-5.67v-33.97h5.94l10.17,15.79Z"/>
      <path class="st1" d="M400.5,211.3c0,2.59-.34,4.96-1.01,7.12-.67,2.16-1.65,4.02-2.94,5.57-1.29,1.56-2.87,2.77-4.74,3.63-1.87.86-4,1.3-6.39,1.3s-4.52-.43-6.39-1.3c-1.87-.86-3.45-2.07-4.74-3.63-1.29-1.56-2.27-3.41-2.94-5.57-.67-2.16-1.01-4.53-1.01-7.12s.34-4.96,1.01-7.12c.67-2.16,1.65-4.02,2.94-5.57,1.29-1.56,2.87-2.77,4.74-3.63,1.87-.86,4-1.29,6.39-1.29s4.52.43,6.39,1.29c1.87.86,3.45,2.07,4.74,3.63,1.29,1.56,2.27,3.41,2.94,5.57.67,2.16,1.01,4.53,1.01,7.12ZM394.65,211.3c0-2.06-.23-3.87-.69-5.42-.46-1.55-1.1-2.84-1.92-3.87s-1.79-1.8-2.91-2.31c-1.13-.51-2.36-.76-3.7-.76s-2.57.25-3.7.76c-1.13.51-2.1,1.28-2.91,2.31s-1.46,2.32-1.92,3.87c-.46,1.55-.69,3.36-.69,5.42s.23,3.87.69,5.42c.46,1.55,1.1,2.84,1.92,3.86.82,1.02,1.79,1.79,2.91,2.31,1.13.52,2.36.77,3.7.77s2.57-.26,3.7-.77c1.12-.52,2.1-1.29,2.91-2.31.82-1.02,1.46-2.31,1.92-3.86.46-1.55.69-3.36.69-5.42Z"/>
      <path class="st1" d="M432.16,194.32v28.77h14.47v5.2h-20.14v-33.97h5.67Z"/>
      <path class="st1" d="M498.85,211.3c0,2.59-.34,4.96-1,7.12-.67,2.16-1.65,4.02-2.94,5.57-1.29,1.56-2.87,2.77-4.74,3.63s-4,1.3-6.39,1.3-4.52-.43-6.39-1.3-3.45-2.07-4.74-3.63c-1.29-1.56-2.26-3.41-2.94-5.57-.67-2.16-1.01-4.53-1.01-7.12s.34-4.96,1.01-7.12c.67-2.16,1.65-4.02,2.94-5.57,1.29-1.56,2.87-2.77,4.74-3.63s4-1.29,6.39-1.29,4.52.43,6.39,1.29,3.45,2.07,4.74,3.63c1.29,1.56,2.27,3.41,2.94,5.57.67,2.16,1,4.53,1,7.12ZM493,211.3c0-2.06-.23-3.87-.69-5.42-.46-1.55-1.1-2.84-1.92-3.87-.82-1.03-1.79-1.8-2.91-2.31s-2.36-.76-3.7-.76-2.57.25-3.7.76-2.1,1.28-2.91,2.31c-.82,1.03-1.46,2.32-1.92,3.87-.46,1.55-.69,3.36-.69,5.42s.23,3.87.69,5.42c.46,1.55,1.1,2.84,1.92,3.86.82,1.02,1.79,1.79,2.91,2.31,1.13.52,2.36.77,3.7.77s2.57-.26,3.7-.77c1.13-.52,2.1-1.29,2.91-2.31.82-1.02,1.46-2.31,1.92-3.86.46-1.55.69-3.36.69-5.42Z"/>
      <path class="st1" d="M544.09,215.31h-6.94v-5.21h12.6v17.14c-.46.19-1.05.38-1.77.58s-1.52.39-2.41.55c-.89.16-1.8.29-2.74.39-.94.1-1.87.15-2.8.15-2.77,0-5.2-.41-7.27-1.23-2.07-.82-3.8-1.98-5.18-3.47-1.38-1.49-2.41-3.26-3.1-5.32-.69-2.06-1.03-4.33-1.03-6.82,0-1.76.18-3.44.54-5.04.36-1.6.89-3.08,1.6-4.44.7-1.36,1.55-2.59,2.55-3.69s2.15-2.04,3.43-2.82c1.29-.78,2.7-1.38,4.23-1.79,1.53-.41,3.18-.62,4.94-.62,1.56,0,3.04.12,4.44.37,1.4.25,2.55.55,3.44.9v5.28c-1.2-.42-2.42-.74-3.64-.96s-2.46-.33-3.71-.33c-1.68,0-3.25.28-4.72.83-1.46.55-2.73,1.36-3.8,2.44-1.07,1.08-1.92,2.4-2.53,3.97-.62,1.57-.93,3.39-.93,5.46.02,4.01.97,7.02,2.87,9.03,1.9,2.01,4.59,3.01,8.07,3.01.65,0,1.32-.04,2.01-.11.69-.08,1.3-.17,1.83-.29v-7.95Z"/>
      <path class="st1" d="M576.67,228.29v-33.97h5.66v33.97h-5.66Z"/>
      <path class="st1" d="M615.39,223.08h15.21v5.2h-20.88v-33.97h20.05v5.21h-14.38v8.78h12.35v5.2h-12.35v9.57Z"/>
      <path class="st1" d="M671.81,218.54c0-.86-.19-1.56-.58-2.09-.39-.53-.91-.97-1.57-1.31-.66-.34-1.41-.61-2.23-.83-.83-.21-1.69-.42-2.6-.62-1.2-.29-2.35-.63-3.44-1.03-1.09-.4-2.06-.95-2.89-1.65-.83-.7-1.5-1.6-1.99-2.68-.49-1.08-.74-2.44-.74-4.06,0-1.79.29-3.36.86-4.68.57-1.33,1.34-2.43,2.32-3.3.98-.87,2.13-1.52,3.44-1.95,1.32-.43,2.8-.65,4.45-.65s3.31.18,4.97.53c1.67.36,3.1.81,4.3,1.37v5.33c-1.6-.69-3.14-1.2-4.61-1.51-1.47-.31-2.86-.47-4.15-.47-1.87,0-3.3.37-4.31,1.12-1.01.75-1.52,1.86-1.52,3.35,0,.86.17,1.57.5,2.13.33.56.78,1.02,1.35,1.38.57.36,1.23.66,1.96.88s1.53.42,2.36.61c1.31.3,2.56.66,3.76,1.05,1.19.4,2.26.95,3.18,1.66.93.71,1.66,1.64,2.2,2.78.54,1.14.81,2.6.81,4.38s-.31,3.41-.93,4.75c-.62,1.34-1.49,2.44-2.62,3.31-1.13.87-2.51,1.52-4.13,1.94-1.62.42-3.39.64-5.32.64-1.68,0-3.33-.18-4.96-.55-1.63-.36-2.98-.88-4.06-1.54v-5.26c1.53.73,3.01,1.26,4.46,1.59,1.45.33,2.94.49,4.49.49.89,0,1.77-.08,2.64-.24.86-.16,1.64-.44,2.32-.83.69-.39,1.24-.92,1.65-1.59.42-.67.62-1.49.62-2.48Z"/>
    </g>
    <polygon class="st4" points="866.66 22.49 823.9 169.01 852.62 169.01 868.58 119.5 878.47 83.44 866.66 22.49"/>
    <path class="st0" d="M866.66,22.49c14.68,48.84,29.36,97.68,44.04,146.52h-28.72c-9.82-32.68-19.64-65.37-29.46-98.05,4.72-16.16,9.43-32.32,14.15-48.47Z"/>
  </g>
  <g id="Layer_3">
    <path class="st2" d="M770.08,148.76"/>
  </g>
</svg>