<svg width="51" height="49" viewBox="0 0 51 49" fill="none" xmlns="http://www.w3.org/2000/svg">
<path d="M9.10417 0.019043H41.3958C46.2917 0.019043 50.25 3.97738 50.25 8.87321V39.9149C50.25 44.8107 46.2917 48.769 41.3958 48.769H9.10417C4.20833 48.769 0.25 44.8107 0.25 39.9149V8.87321C0.25 3.97738 4.20833 0.019043 9.10417 0.019043Z" fill="#330000"/>
<path d="M24.4166 29.1857H16.6666L15.0833 34.0815C15.0416 34.269 14.875 34.394 14.6875 34.3732H10.7708C10.5416 34.3732 10.4791 34.2482 10.5416 33.9982L17.25 14.6857C17.3125 14.4774 17.375 14.2482 17.4583 13.9982C17.5416 13.5607 17.5833 13.1024 17.5833 12.644C17.5625 12.5399 17.6458 12.4357 17.75 12.4149H23.1458C23.3125 12.4149 23.3958 12.4774 23.4166 12.5815L31.0208 34.0399C31.0833 34.269 31.0208 34.3732 30.8125 34.3732H26.4583C26.3125 34.394 26.1666 34.2899 26.125 34.144L24.4166 29.1857ZM17.875 24.9565H23.1666C23.0416 24.519 22.875 23.9982 22.6875 23.4565C22.5 22.894 22.3125 22.2899 22.125 21.6649C21.9166 21.019 21.7291 20.394 21.5208 19.7482C21.3125 19.1024 21.125 18.4982 20.9583 17.894C20.7916 17.3107 20.6458 16.769 20.5 16.269H20.4583C20.2708 17.1649 20.0416 18.0607 19.75 18.9565C19.4375 19.9565 19.125 20.9982 18.7916 22.0399C18.5 23.1024 18.1875 24.0815 17.875 24.9565ZM35.6666 16.0607C34.9791 16.0815 34.3125 15.8107 33.8125 15.3315C33.3333 14.8107 33.0833 14.1232 33.1041 13.4149C33.0833 12.7065 33.3541 12.0399 33.8541 11.5607C34.3541 11.0815 35.0208 10.8315 35.7083 10.8315C36.5208 10.8315 37.1458 11.0815 37.6041 11.5607C38.0625 12.0607 38.3125 12.7274 38.2916 13.4149C38.3125 14.1232 38.0625 14.8107 37.5625 15.3315C37.0833 15.8315 36.375 16.1024 35.6666 16.0607ZM33.3333 34.144V18.1024C33.3333 17.894 33.4166 17.8107 33.6041 17.8107H37.7291C37.9166 17.8107 38 17.9149 38 18.1024V34.144C38 34.3732 37.9166 34.4774 37.7291 34.4774H33.6458C33.4375 34.4774 33.3333 34.3524 33.3333 34.144Z" fill="#FF9A00"/>
</svg>
