<svg width="55" height="33" viewBox="0 0 55 33" fill="none" xmlns="http://www.w3.org/2000/svg">
<path d="M15.4996 11.945C15.4996 12.6218 15.5728 13.1705 15.7008 13.573C15.8471 13.9754 16.0301 14.4144 16.2862 14.89C16.3776 15.0364 16.4142 15.1827 16.4142 15.3108C16.4142 15.4937 16.3045 15.6766 16.0667 15.8595L14.9142 16.6278C14.7496 16.7376 14.585 16.7924 14.4386 16.7924C14.2557 16.7924 14.0728 16.701 13.8899 16.5363C13.6338 16.262 13.4143 15.9693 13.2313 15.6766C13.0484 15.3656 12.8655 15.0181 12.6643 14.5974C11.2375 16.2803 9.4448 17.1217 7.28629 17.1217C5.74973 17.1217 4.52414 16.6827 3.62781 15.8047C2.73148 14.9266 2.27417 13.7559 2.27417 12.2925C2.27417 10.7377 2.82294 9.47547 3.93878 8.52427C5.05462 7.57306 6.5363 7.09746 8.42042 7.09746C9.04237 7.09746 9.6826 7.15234 10.3594 7.2438C11.0362 7.33526 11.7314 7.4816 12.463 7.64623V6.31088C12.463 4.92066 12.1704 3.95116 11.6033 3.3841C11.0179 2.81703 10.0302 2.54265 8.62164 2.54265C7.9814 2.54265 7.32288 2.61582 6.64606 2.78045C5.96924 2.94508 5.31071 3.1463 4.67048 3.40239C4.3778 3.53044 4.15829 3.60361 4.03024 3.64019C3.9022 3.67678 3.81073 3.69507 3.73756 3.69507C3.48147 3.69507 3.35342 3.51214 3.35342 3.128V2.23168C3.35342 1.939 3.39001 1.71949 3.48147 1.59144C3.57293 1.46339 3.73756 1.33535 3.99366 1.2073C4.63389 0.878036 5.40217 0.60365 6.2985 0.384141C7.19483 0.146339 8.14604 0.0365848 9.15212 0.0365848C11.3289 0.0365848 12.9204 0.53048 13.9447 1.51827C14.9508 2.50606 15.463 4.00604 15.463 6.01821V11.945H15.4996ZM8.07287 14.7254C8.67652 14.7254 9.29846 14.6156 9.95699 14.3961C10.6155 14.1766 11.2009 13.7742 11.6948 13.2254C11.9874 12.8779 12.207 12.4937 12.3167 12.0547C12.4265 11.6157 12.4996 11.0852 12.4996 10.4633V9.69498C11.9692 9.56694 11.4021 9.45718 10.8167 9.38401C10.2314 9.31084 9.66431 9.27426 9.09724 9.27426C7.87165 9.27426 6.97532 9.51206 6.37167 10.006C5.76802 10.4998 5.47534 11.195 5.47534 12.1096C5.47534 12.9693 5.69485 13.6096 6.15216 14.0486C6.59118 14.5059 7.23142 14.7254 8.07287 14.7254ZM22.7617 16.701C22.4324 16.701 22.2129 16.6461 22.0666 16.5181C21.9202 16.4083 21.7922 16.1522 21.6824 15.8047L17.3837 1.66461C17.274 1.29876 17.2191 1.06096 17.2191 0.932913C17.2191 0.640235 17.3654 0.475603 17.6581 0.475603H19.4508C19.7983 0.475603 20.0361 0.53048 20.1642 0.658527C20.3105 0.768282 20.4202 1.02438 20.53 1.37193L23.6031 13.4815L26.4567 1.37193C26.5482 1.00608 26.658 0.768282 26.8043 0.658527C26.9506 0.548773 27.2067 0.475603 27.536 0.475603H28.9994C29.3469 0.475603 29.5848 0.53048 29.7311 0.658527C29.8774 0.768282 30.0055 1.02438 30.0786 1.37193L32.9688 13.6279L36.1334 1.37193C36.2432 1.00608 36.3712 0.768282 36.4993 0.658527C36.6456 0.548773 36.8834 0.475603 37.2127 0.475603H38.9139C39.2066 0.475603 39.3712 0.621942 39.3712 0.932913C39.3712 1.02438 39.3529 1.11584 39.3346 1.22559C39.3163 1.33535 39.2797 1.48169 39.2066 1.6829L34.7981 15.8229C34.6883 16.1888 34.5603 16.4266 34.414 16.5363C34.2676 16.6461 34.0298 16.7193 33.7188 16.7193H32.1457C31.7981 16.7193 31.5603 16.6644 31.414 16.5363C31.2677 16.4083 31.1396 16.1705 31.0664 15.8047L28.2311 4.00604L25.4141 15.7864C25.3226 16.1522 25.2129 16.39 25.0665 16.5181C24.9202 16.6461 24.6641 16.701 24.3348 16.701H22.7617ZM46.2674 17.1949C45.3162 17.1949 44.365 17.0851 43.4504 16.8656C42.5358 16.6461 41.8224 16.4083 41.3468 16.1339C41.0541 15.9693 40.8529 15.7864 40.7797 15.6217C40.7065 15.4571 40.67 15.2742 40.67 15.1095V14.1766C40.67 13.7925 40.8163 13.6096 41.0907 13.6096C41.2004 13.6096 41.3102 13.6279 41.4199 13.6644C41.5297 13.701 41.6943 13.7742 41.8773 13.8474C42.4992 14.1217 43.176 14.3413 43.8894 14.4876C44.6211 14.6339 45.3345 14.7071 46.0662 14.7071C47.2186 14.7071 48.115 14.5059 48.7369 14.1035C49.3589 13.701 49.6881 13.1157 49.6881 12.3657C49.6881 11.8535 49.5235 11.4328 49.1942 11.0852C48.865 10.7377 48.243 10.4267 47.3467 10.134L44.6943 9.31084C43.3589 8.89012 42.3712 8.26817 41.7675 7.44501C41.1639 6.64015 40.8529 5.74382 40.8529 4.79261C40.8529 4.02433 41.0175 3.34751 41.3468 2.76216C41.676 2.1768 42.1151 1.66461 42.6638 1.26218C43.2126 0.841451 43.8345 0.53048 44.5662 0.310971C45.2979 0.0914621 46.0662 0 46.8711 0C47.2735 0 47.6942 0.0182924 48.0967 0.0731697C48.5174 0.128047 48.9015 0.201217 49.2857 0.274386C49.6515 0.365848 49.9991 0.45731 50.3284 0.567065C50.6576 0.67682 50.9137 0.786574 51.0966 0.896329C51.3527 1.04267 51.5357 1.18901 51.6454 1.35364C51.7552 1.49998 51.81 1.7012 51.81 1.95729V2.81703C51.81 3.20117 51.6637 3.40239 51.3893 3.40239C51.243 3.40239 51.0052 3.32922 50.6942 3.18288C49.6515 2.70728 48.4808 2.46948 47.1821 2.46948C46.1394 2.46948 45.3162 2.63411 44.7492 2.98166C44.1821 3.32922 43.8894 3.8597 43.8894 4.60969C43.8894 5.12188 44.0723 5.5609 44.4382 5.90845C44.804 6.25601 45.4809 6.60356 46.4504 6.91454L49.0479 7.73769C50.3649 8.15842 51.3161 8.74378 51.8832 9.49377C52.4503 10.2438 52.7247 11.1035 52.7247 12.0547C52.7247 12.8413 52.56 13.5547 52.2491 14.1766C51.9198 14.7986 51.4808 15.3473 50.9137 15.7864C50.3466 16.2437 49.6698 16.5729 48.8833 16.8107C48.0601 17.0668 47.2004 17.1949 46.2674 17.1949Z" fill="white"/>
<path fill-rule="evenodd" clip-rule="evenodd" d="M49.7247 26.085C43.7064 30.53 34.9627 32.8898 27.4445 32.8898C16.9081 32.8898 7.41429 28.9935 0.243658 22.518C-0.323407 22.0058 0.188781 21.3107 0.8656 21.7131C8.62159 26.213 18.1885 28.9386 28.0847 28.9386C34.7615 28.9386 42.0967 27.5484 48.8466 24.6948C49.8527 24.2374 50.7124 25.3533 49.7247 26.085Z" fill="#FF9900"/>
<path fill-rule="evenodd" clip-rule="evenodd" d="M52.2308 23.2314C51.4625 22.2436 47.1455 22.7558 45.1882 22.9936C44.6029 23.0668 44.5114 22.5546 45.0419 22.1704C48.4809 19.7558 54.1332 20.4509 54.7918 21.2558C55.4503 22.079 54.6088 27.7313 51.3894 30.4386C50.8955 30.8593 50.4199 30.6398 50.6394 30.091C51.3711 28.2801 52.9991 24.2009 52.2308 23.2314Z" fill="#FF9900"/>
</svg>
