<svg width="60" height="58" viewBox="0 0 60 58" fill="none" xmlns="http://www.w3.org/2000/svg">
<path d="M20.0028 0.732127H37.7573L19.3263 55.341C19.1369 55.9021 18.7763 56.3897 18.2952 56.7351C17.8141 57.0806 17.2368 57.2664 16.6446 57.2666H2.82716C2.37843 57.2666 1.93613 57.1598 1.53687 56.955C1.1376 56.7502 0.79283 56.4533 0.53109 56.0888C0.26935 55.7243 0.0981583 55.3027 0.0316781 54.8589C-0.0348022 54.4152 0.0053399 53.9619 0.148783 53.5367L17.3203 2.65772C17.5096 2.09635 17.8703 1.60851 18.3516 1.26294C18.8328 0.917372 19.4103 0.73216 20.0028 0.732127Z" fill="url(#paint0_linear_318_561)"/>
<path d="M45.8024 37.3601H17.648C17.3862 37.3598 17.1305 37.4384 16.914 37.5855C16.6975 37.7327 16.5304 37.9416 16.4344 38.1851C16.3383 38.4286 16.3179 38.6954 16.3756 38.9507C16.4334 39.206 16.5667 39.438 16.7582 39.6164L34.8495 56.5022C35.3762 56.9936 36.0698 57.2667 36.7901 57.2666H52.7322L45.8024 37.3601Z" fill="#0078D4"/>
<path d="M20.0026 0.732198C19.4036 0.7299 18.8197 0.919165 18.336 1.27235C17.8523 1.62553 17.4942 2.12412 17.314 2.6953L0.169728 53.4904C0.0166347 53.9172 -0.0314287 54.3745 0.0296041 54.8237C0.0906369 55.273 0.25897 55.7009 0.520364 56.0713C0.781758 56.4417 1.12852 56.7438 1.53132 56.9518C1.93412 57.1599 2.38111 57.2679 2.83447 57.2666H17.0085C17.5364 57.1723 18.0298 56.9396 18.4383 56.5921C18.8468 56.2447 19.1558 55.7951 19.3337 55.2892L22.7525 45.2132L34.9648 56.6039C35.4766 57.0272 36.1186 57.2612 36.7827 57.2666H52.6654L45.6995 37.3601L25.3927 37.3649L37.8212 0.732198H20.0026Z" fill="url(#paint1_linear_318_561)"/>
<path d="M42.6796 2.65505C42.4906 2.09458 42.1304 1.60755 41.6499 1.26259C41.1694 0.917624 40.5928 0.732109 40.0013 0.732178H20.2141C20.8056 0.732211 21.3822 0.917766 21.8627 1.26272C22.3431 1.60766 22.7033 2.09463 22.8925 2.65505L40.0647 53.5361C40.2082 53.9614 40.2485 54.4147 40.182 54.8586C40.1156 55.3025 39.9445 55.7242 39.6827 56.0888C39.421 56.4535 39.0762 56.7505 38.6769 56.9554C38.2775 57.1604 37.8351 57.2673 37.3863 57.2673H57.1741C57.6229 57.2672 58.0652 57.1602 58.4645 56.9552C58.8637 56.7502 59.2084 56.4532 59.4701 56.0886C59.7317 55.7239 59.9028 55.3023 59.9692 54.8584C60.0356 54.4146 59.9954 53.9613 59.8518 53.5361L42.6796 2.65505Z" fill="url(#paint2_linear_318_561)"/>
<defs>
<linearGradient id="paint0_linear_318_561" x1="26.4737" y1="4.92153" x2="8.03528" y2="59.3933" gradientUnits="userSpaceOnUse">
<stop stop-color="#114A8B"/>
<stop offset="1" stop-color="#0669BC"/>
</linearGradient>
<linearGradient id="paint1_linear_318_561" x1="32.2332" y1="30.3069" x2="27.9682" y2="31.7491" gradientUnits="userSpaceOnUse">
<stop stop-opacity="0.3"/>
<stop offset="0.071" stop-opacity="0.2"/>
<stop offset="0.321" stop-opacity="0.1"/>
<stop offset="0.623" stop-opacity="0.05"/>
<stop offset="1" stop-opacity="0"/>
</linearGradient>
<linearGradient id="paint2_linear_318_561" x1="29.8878" y1="3.33283" x2="50.1277" y2="57.2557" gradientUnits="userSpaceOnUse">
<stop stop-color="#3CCBF4"/>
<stop offset="1" stop-color="#2892DF"/>
</linearGradient>
</defs>
</svg>
