<svg width="65" height="30" viewBox="0 0 65 30" fill="none" xmlns="http://www.w3.org/2000/svg">
<path d="M44.3197 28.9291C46.0556 24.826 43.6884 22.9323 41.3212 22.9323L17.9652 22.6167C17.3339 22.6167 17.3339 21.6698 18.123 21.512L41.7947 21.1964C44.4775 21.0386 47.6337 18.8292 48.5806 15.9886C48.5806 15.9886 50.1587 12.6746 50.0009 12.2011C49.3177 8.90489 47.567 5.92575 45.0199 3.72487C42.4727 1.52399 39.2711 0.224101 35.9106 0.0264258C32.5501 -0.17125 29.2182 0.744308 26.4306 2.63138C23.6429 4.51845 21.5551 7.27179 20.4901 10.4652C14.4933 6.51992 8.18086 11.8855 9.60116 17.7245C2.02622 18.198 -0.656573 24.9838 0.132484 29.0869C0.132484 29.2448 0.290295 29.4026 0.605918 29.4026H43.8462C44.004 29.4026 44.3197 29.2448 44.3197 28.9291Z" fill="#F38020"/>
<path d="M52.2102 12.8324C51.5789 12.8324 51.2633 12.6746 51.1055 12.9902L50.3164 16.3043C49.5274 18.8293 50.7899 21.0386 53.4726 21.1964L58.5226 21.512C59.1539 21.512 59.1539 22.4589 58.3648 22.6167L53.157 22.7745C47.4758 23.4058 45.8977 28.9292 45.8977 28.9292C45.8977 29.2448 45.8977 29.4026 46.2133 29.4026H64.046L64.5194 29.087C65.056 27.1856 65.1446 25.1858 64.7782 23.2444C64.4118 21.3031 63.6004 19.4731 62.4077 17.8981C61.215 16.3231 59.6735 15.046 57.9041 14.1671C56.1348 13.2882 54.1858 12.8313 52.2102 12.8324Z" fill="#FAAE40"/>
</svg>
