<svg width="86" height="31" viewBox="0 0 86 31" fill="none" xmlns="http://www.w3.org/2000/svg">
<path d="M24.1334 10.6077H24.8184L24.476 0.881592H23.4487C23.4487 0.881592 23.0376 2.86803 22.0102 2.86803C20.9829 2.86803 19.1336 0.881592 14.2706 0.881592C9.40752 0.881592 0.777466 5.19662 0.777466 16.8402C0.777466 28.4839 10.6405 30.8816 14.2706 30.8816C17.9006 30.8816 21.4622 29.6486 23.791 26.635L22.9691 25.402C22.9691 25.402 20.8459 28.8949 15.709 28.8949C10.572 28.8949 5.57205 24.991 5.57205 16.3609C5.57205 7.73086 9.47622 2.59391 15.0925 2.59391C20.7088 2.59391 22.9006 6.77221 24.1334 10.6077Z" fill="white"/>
<path d="M31.8047 30.8814C37.2519 30.8814 41.6678 26.2051 41.6678 20.4366C41.6678 14.668 37.2519 9.9917 31.8047 9.9917C26.3575 9.9917 21.9417 14.668 21.9417 20.4366C21.9417 26.2051 26.3575 30.8814 31.8047 30.8814Z" fill="white"/>
<path d="M54.7483 20.1281C54.7483 20.1281 59.2005 18.4843 58.2371 14.578C57.2476 10.5675 52.4648 10.3337 50.8446 10.3337C49.2239 10.3337 40.6392 10.3337 40.6392 10.3337V11.1518C43.8584 11.1518 43.5845 13.2104 43.5845 13.2104C43.5845 13.2104 43.5845 24.1005 43.5845 27.2513C43.5845 30.402 40.6392 29.7213 40.6392 29.7213V30.6076C40.6392 30.6076 46.8037 30.6076 51.187 30.6076C55.5707 30.6076 59.2007 29.0323 59.2007 24.9911C59.2005 20.95 54.7483 20.1281 54.7483 20.1281ZM46.6665 11.7035C46.6665 11.7035 55.0227 10.5618 55.0227 15.4707C55.0227 20.3795 48.5842 19.5803 46.6665 19.2379V11.7035ZM46.6665 28.9262V20.9355C46.6665 20.9355 55.6389 19.7245 55.6389 24.9306C55.6389 30.1372 48.7255 29.2894 46.6665 28.9262Z" fill="white"/>
<path d="M67.2776 11.1521V10.334H58.7206V11.1521C58.7206 11.1521 61.4605 11.0874 61.4605 12.731C61.4605 14.3747 61.4605 28.3471 61.4605 28.3471C61.4605 28.3471 61.3235 30.1966 58.7206 29.5116V30.6077H67.2776V29.5116C64.6749 30.1966 64.5377 28.3471 64.5377 28.3471C64.5377 28.3471 64.5377 14.3747 64.5377 12.731C64.5377 11.0874 67.2776 11.1521 67.2776 11.1521Z" fill="white"/>
<path d="M84.7431 1.90918H62.0771L61.5978 8.62149H62.6251C62.6251 4.03257 66.5975 4.10105 66.5975 4.10105H71.2552C71.2552 4.10105 71.2552 21.1555 71.2552 26.0188C71.2552 30.8814 67.278 29.5117 67.278 29.5117V30.6077H79.5426V29.5117C79.5426 29.5117 75.5652 30.8814 75.5652 26.0188C75.5652 21.1557 75.5652 4.10105 75.5652 4.10105H80.2226C80.2226 4.10105 84.1953 4.03257 84.1953 8.62149H85.2226L84.7431 1.90918Z" fill="white"/>
<path d="M25.5033 20.4363C25.5033 15.3086 27.558 11.1519 31.8045 11.1519C36.0511 11.1519 38.106 15.3086 38.106 20.4363C38.106 25.5642 36.4028 29.7212 31.8045 29.7212C27.2068 29.7212 25.5033 25.5642 25.5033 20.4363Z" fill="#A4224C"/>
</svg>
