<svg width="60" height="60" viewBox="0 0 60 60" fill="none" xmlns="http://www.w3.org/2000/svg">
<path d="M30.0014 60V48.3827C42.3329 48.3827 51.8642 36.1769 47.1583 23.215C45.4137 18.4148 41.5852 14.5842 36.7829 12.8417C23.821 8.13786 11.6215 17.6692 11.6194 29.9965L11.6173 30.0007H0C0 10.3558 18.9789 -4.9392 39.5621 1.48833C48.5573 4.29474 55.7053 11.4427 58.5138 20.4379C64.9413 41.0232 49.6442 60 30.0014 60Z" fill="#0069FF"/>
<path fill-rule="evenodd" clip-rule="evenodd" d="M30.028 48.4114H18.4442V36.8297L18.4463 36.8276H30.0259L30.028 36.8297V48.4114Z" fill="#0069FF"/>
<path fill-rule="evenodd" clip-rule="evenodd" d="M18.4417 57.3113H9.54287L9.54077 57.3092V48.4103H18.4438V57.3092L18.4417 57.3113Z" fill="#0069FF"/>
<path fill-rule="evenodd" clip-rule="evenodd" d="M9.54797 48.4114H2.08793L2.08374 48.4093V40.9534L2.08793 40.9472H9.54378L9.54797 40.9492V48.4114Z" fill="#0069FF"/>
</svg>
