<svg width="60" height="44" viewBox="0 0 60 44" fill="none" xmlns="http://www.w3.org/2000/svg">
<path d="M58.7616 16.5228C57.4105 15.5853 54.3143 15.2338 51.8936 15.7025C51.6121 13.3588 50.3173 11.3081 48.0655 9.49181L46.7707 8.55434L45.87 9.90195C44.7441 11.6597 44.1811 14.1205 44.35 16.4642C44.4063 17.2845 44.6878 18.7492 45.5322 20.0383C44.7441 20.507 43.1115 21.0929 40.9723 21.0929H0.270771L0.158181 21.5616C-0.235887 23.9053 -0.235887 31.2292 4.38033 36.854C7.87064 41.1312 13.0498 43.299 19.8615 43.299C34.6109 43.299 45.5322 36.2095 50.6551 23.378C52.6817 23.4366 57.0165 23.378 59.212 18.9836C59.2683 18.8664 59.3809 18.6321 59.7749 17.7532L60.0001 17.2845L58.7616 16.5228ZM32.8095 0H26.617V5.85914H32.8095V0ZM32.8095 7.03097H26.617V12.8901H32.8095V7.03097ZM25.4911 7.03097H19.2986V12.8901H25.4911V7.03097ZM18.1727 7.03097H11.9802V12.8901H18.1727V7.03097ZM10.8543 14.0619H4.66181V19.9211H10.8543V14.0619ZM18.1727 14.0619H11.9802V19.9211H18.1727V14.0619ZM25.4911 14.0619H19.2986V19.9211H25.4911V14.0619ZM32.8095 14.0619H26.617V19.9211H32.8095V14.0619ZM40.1279 14.0619H33.9354V19.9211H40.1279V14.0619Z" fill="#2396ED"/>
</svg>
