<svg width="50" height="30" viewBox="0 0 50 30" fill="none" xmlns="http://www.w3.org/2000/svg">
<path d="M50 28.7749C48.1812 29.2381 47.0562 28.7952 46.0471 27.2773L38.8688 17.3295L37.8312 15.952L29.4484 27.3104C28.4907 28.6769 27.4861 29.2711 25.6984 28.7877L36.4328 14.3541L26.4391 1.31635C28.1577 0.981663 29.3453 1.15182 30.3998 2.69379L37.8451 12.7656L45.3451 2.74863C46.3059 1.38209 47.339 0.862964 49.064 1.36631L45.1891 6.51245L39.9391 13.3598C39.314 14.1423 39.3998 14.6779 39.9751 15.4333L50 28.7749ZM0.01275 14.113L0.890627 9.78682C3.28126 1.22545 13.0782 -2.33215 19.8345 2.95786C23.7829 6.0692 24.7643 10.4705 24.5689 15.4006H2.31263C1.9785 24.2749 8.35502 29.6306 16.4843 26.8983C19.3358 25.9389 21.0154 23.702 21.8562 20.904C22.2829 19.5017 22.9887 19.2824 24.3046 19.6832C23.6329 23.1829 22.1172 26.1065 18.9139 27.9362C14.1282 30.6749 7.29639 29.7891 3.70313 25.9829C1.56225 23.7742 0.678002 20.9761 0.281251 17.9834C0.218626 17.4887 0.0937502 17.0177 0 16.5437C0.00825002 15.7338 0.01275 14.9243 0.01275 14.1145V14.113ZM2.35313 13.5183H22.4656C22.3343 7.10143 18.3454 2.54353 12.8937 2.50484C6.90939 2.45789 2.61226 6.90723 2.35276 13.5183H2.35313Z" fill="white"/>
</svg>
