<svg width="41" height="61" viewBox="0 0 41 61" fill="none" xmlns="http://www.w3.org/2000/svg">
<path d="M10.3934 60.0327C15.9134 60.0327 20.3934 55.5527 20.3934 50.0327V40.0327H10.3934C4.87343 40.0327 0.393433 44.5127 0.393433 50.0327C0.393433 55.5527 4.87343 60.0327 10.3934 60.0327Z" fill="#0ACF83"/>
<path d="M0.393433 30.0327C0.393433 24.5127 4.87343 20.0327 10.3934 20.0327H20.3934V40.0327H10.3934C4.87343 40.0327 0.393433 35.5527 0.393433 30.0327Z" fill="#A259FF"/>
<path d="M0.393555 10.0327C0.393555 4.51271 4.87355 0.0327148 10.3936 0.0327148H20.3936V20.0327H10.3936C4.87355 20.0327 0.393555 15.5527 0.393555 10.0327Z" fill="#F24E1E"/>
<path d="M20.3934 0.0327148H30.3934C35.9134 0.0327148 40.3934 4.51271 40.3934 10.0327C40.3934 15.5527 35.9134 20.0327 30.3934 20.0327H20.3934V0.0327148Z" fill="#FF7262"/>
<path d="M40.3934 30.0327C40.3934 35.5527 35.9134 40.0327 30.3934 40.0327C24.8734 40.0327 20.3934 35.5527 20.3934 30.0327C20.3934 24.5127 24.8734 20.0327 30.3934 20.0327C35.9134 20.0327 40.3934 24.5127 40.3934 30.0327Z" fill="#1ABCFE"/>
</svg>
