<svg width="51" height="63" viewBox="0 0 51 63" fill="none" xmlns="http://www.w3.org/2000/svg">
<path d="M16.4224 61.0652C19.0505 62.1248 21.9001 62.7534 24.8934 62.8552C28.9464 62.9988 32.7958 62.1607 36.2441 60.5683C32.1133 58.9459 28.3717 56.5752 25.1808 53.6238C23.1094 56.9404 20.0503 59.5565 16.4224 61.0652Z" fill="#FF9100"/>
<path d="M25.1807 53.6178C17.895 46.8769 13.4708 37.1247 13.848 26.4206C13.86 26.0734 13.8779 25.7261 13.9019 25.3789C12.5968 25.0437 11.2318 24.8341 9.83096 24.7862C7.82544 24.7144 5.87978 24.9658 4.04188 25.4807C2.09623 28.8931 0.922848 32.8023 0.779169 36.993C0.402011 47.8048 6.9454 57.2457 16.4282 61.0652C20.0561 59.5506 23.1153 56.9404 25.1867 53.6238L25.1807 53.6178Z" fill="#FFC400"/>
<path d="M25.1807 53.6178C26.8749 50.9059 27.9046 47.727 28.0243 44.3027C28.3416 35.2928 22.2831 27.5401 13.9019 25.3789C13.8779 25.7261 13.86 26.0734 13.848 26.4206C13.4768 37.1187 17.8949 46.8769 25.1807 53.6178Z" fill="#FF9100"/>
<path d="M27.0844 0.0554199C22.3131 3.88088 18.5415 8.92162 16.2606 14.7346C14.9555 18.0632 14.1353 21.6372 13.8959 25.3849C22.2772 27.546 28.3356 35.2987 28.0183 44.3086C27.8986 47.733 26.8689 50.9119 25.1747 53.6238C28.3656 56.5752 32.1072 58.9459 36.238 60.5683C44.5295 56.7368 50.4083 48.4873 50.7496 38.735C50.9711 32.4132 48.5405 26.7857 45.1102 22.0264C41.4942 16.9976 27.0844 0.0554199 27.0844 0.0554199Z" fill="#DD2C00"/>
</svg>
