<svg width="60" height="49" viewBox="0 0 60 49" fill="none" xmlns="http://www.w3.org/2000/svg">
<path d="M39.9025 13.7583L45.1181 8.54271L45.4656 6.34661C35.9615 -2.2955 20.8534 -1.31558 12.2859 8.3913C9.90601 11.0873 8.14046 14.4485 7.19897 17.9194L9.06694 17.6561L19.4978 15.9361L20.3031 15.1125C24.943 10.0167 32.7883 9.33115 38.1456 13.6669L39.9025 13.7583Z" fill="#EA4335"/>
<path d="M52.5478 17.7659C51.349 13.3512 48.8878 9.38254 45.4657 6.34668L38.1457 13.6667C41.2366 16.1923 42.9975 19.9972 42.922 23.9879V25.2872C46.5199 25.2872 49.4369 28.204 49.4369 31.8019C49.4369 35.4001 46.5199 38.2437 42.922 38.2437H29.8741L28.593 39.6345V47.4486L29.8741 48.6746H42.922C52.2806 48.7475 59.9264 41.2932 59.9993 31.9346C60.0433 26.262 57.2465 20.944 52.5478 17.7659Z" fill="#4285F4"/>
<path d="M16.8445 48.6748H29.8741V38.2437H16.8445C15.9162 38.2434 15.0171 38.044 14.1729 37.6582L12.3244 38.2254L7.07225 43.4409L6.61475 45.2161C9.56014 47.4401 13.1538 48.6907 16.8445 48.6748Z" fill="#34A853"/>
<path d="M16.8444 14.838C7.48553 14.8938 -0.0557179 22.526 6.33267e-05 31.8846C0.0312352 37.1107 2.47202 42.0302 6.6146 45.2161L14.1727 37.6582C10.8936 36.1767 9.43647 32.3177 10.918 29.0388C12.3992 25.7599 16.2584 24.3028 19.5371 25.784C20.982 26.4368 22.1391 27.5941 22.7919 29.0388L30.35 21.4809C27.1341 17.2769 22.1373 14.819 16.8444 14.838Z" fill="#FBBC05"/>
</svg>
