<svg width="52" height="71" viewBox="0 0 52 71" fill="none" xmlns="http://www.w3.org/2000/svg">
<path d="M16.9036 54.4402C16.9036 54.4402 14.2154 56.0765 18.7737 56.544C24.267 57.2453 27.1891 57.1285 33.2669 55.9596C33.2669 55.9596 34.9032 57.0115 37.1239 57.8298C23.4489 63.6738 6.15065 57.479 16.9036 54.4402ZM15.1504 46.843C15.1504 46.843 12.2284 49.0637 16.7867 49.5312C22.7477 50.1157 27.4229 50.2324 35.4876 48.5962C35.4876 48.5962 36.5395 49.765 38.2927 50.3494C21.8126 55.2584 3.34536 50.8169 15.1504 46.843ZM47.4094 60.1673C47.4094 60.1673 49.3963 61.8037 45.1886 63.0893C37.3576 65.4269 12.3452 66.1282 5.33234 63.0893C2.87789 62.0375 7.5531 60.518 9.07247 60.2842C10.5919 59.9336 11.4101 59.9336 11.4101 59.9336C8.72193 58.0635 -6.47256 63.7906 3.69596 65.4269C31.6304 69.9853 54.6561 63.44 47.4094 60.1673ZM18.1893 38.8951C18.1893 38.8951 5.44935 41.934 13.631 42.9859C17.1374 43.4534 24.0333 43.3366 30.4618 42.869C35.7213 42.4015 40.981 41.4665 40.981 41.4665C40.981 41.4665 39.1109 42.2846 37.8252 43.1029C24.8516 46.4923 -0.0440232 44.9729 7.08565 41.4665C13.1634 38.5444 18.1893 38.8951 18.1893 38.8951ZM40.9811 51.635C54.0716 44.856 47.9939 38.3107 43.7862 39.1289C42.7342 39.3627 42.2667 39.5964 42.2667 39.5964C42.2667 39.5964 42.6174 38.8951 43.4355 38.6614C51.734 35.7394 58.2793 47.4273 40.7473 51.9857C40.7473 51.9857 40.8641 51.8688 40.9811 51.635ZM19.475 70.1021C32.0982 70.9204 51.3834 69.6346 51.8508 63.6738C51.8508 63.6738 50.9158 66.0114 41.4486 67.7645C30.6955 69.7515 17.3713 69.5178 9.5402 68.232C9.5402 68.232 11.1765 69.6346 19.475 70.1021Z" fill="#4E7896"/>
<path d="M33.033 0.324707C33.033 0.324707 40.2796 7.68815 26.137 18.7918C14.7996 27.7915 23.5656 32.9343 26.137 38.7783C19.4748 32.8175 14.6827 27.5578 17.9553 22.6488C22.7475 15.4022 35.9549 11.8958 33.033 0.324707ZM29.2929 33.8694C32.6823 37.7264 28.3578 41.2329 28.3578 41.2329C28.3578 41.2329 37.0069 36.7914 33.033 31.298C29.4096 26.0384 26.6045 23.4671 41.799 14.701C41.799 14.701 17.8385 20.6619 29.2929 33.8694Z" fill="#F58219"/>
</svg>
