<svg width="50" height="51" viewBox="0 0 50 51" fill="none" xmlns="http://www.w3.org/2000/svg">
<path d="M49.6423 7.56178C49.6423 3.93887 46.7054 1.00195 43.0825 1.00195C39.7745 1.00195 37.0399 3.45091 36.5894 6.63453C36.5473 6.61222 36.5228 6.59962 36.5228 6.59962C31.1583 4.17995 26.6394 8.46557 26.6394 8.46557L14.6863 20.4772L19.4092 25.0254L29.0301 15.5735C33.5227 11.0807 35.9689 14.1216 35.9689 14.1216C39.351 16.9786 36.0855 20.3607 36.0855 20.3607L40.9252 25.0254C44.8772 20.7571 45.1065 17.0318 43.9052 14.0683C47.1394 13.6633 49.6423 10.9058 49.6423 7.56178Z" fill="#F9AE41"/>
<path d="M43.9661 37.7304C43.9884 37.6885 44.001 37.6641 44.001 37.6641C46.4209 32.2994 42.1351 27.7806 42.1351 27.7806L30.1232 15.8271L25.5752 20.5503L35.0271 30.1712C39.5199 34.6639 36.479 37.1102 36.479 37.1102C33.622 40.4922 30.24 37.2267 30.24 37.2267L25.5752 42.0663C29.8434 46.0183 33.5689 46.2475 36.5322 45.0462C36.9371 48.2807 39.6948 50.7836 43.0389 50.7836C46.6618 50.7836 49.5985 47.8466 49.5985 44.2237C49.5985 40.9158 47.1497 38.1811 43.9661 37.7304Z" fill="#EE4035"/>
<path d="M30.2254 26.5415L20.6046 35.9933C16.1118 40.4862 13.6656 37.4455 13.6656 37.4455C10.2835 34.5883 13.549 31.2065 13.549 31.2065L8.70947 26.5417C4.75744 30.8099 4.52819 34.5352 5.7293 37.4987C2.49486 37.9036 -0.0078125 40.661 -0.0078125 44.0052C-0.0078125 47.6281 2.92911 50.5648 6.55202 50.5648C9.85996 50.565 12.5946 48.1162 13.0451 44.9326C13.0872 44.9549 13.1117 44.9673 13.1117 44.9673C18.4764 47.3874 22.9951 43.1014 22.9951 43.1014L34.9484 31.0895L30.2254 26.5415Z" fill="#4F91CD"/>
<path d="M14.6073 21.3958C10.1145 16.9031 13.155 14.4568 13.155 14.4568C16.0124 11.0748 19.3943 14.3403 19.3943 14.3403L24.0591 9.50092C19.7909 5.54889 16.0656 5.31965 13.1023 6.52075C12.6971 3.28612 9.9398 0.783447 6.5954 0.783447C2.97269 0.783447 0.0359605 3.72037 0.0357666 7.34328C0.0357666 10.6514 2.48453 13.386 5.66815 13.8366C5.64584 13.8787 5.63343 13.9031 5.63343 13.9031C3.21318 19.2676 7.49919 23.7862 7.49919 23.7862L19.5112 35.7397L24.0593 31.0167L14.6073 21.3958Z" fill="#7AC043"/>
</svg>
