<svg width="28" height="60" viewBox="0 0 28 60" fill="none" xmlns="http://www.w3.org/2000/svg">
<path d="M14.0412 0.163818L15.6423 3.17109C16.0023 3.72605 16.3923 4.21726 16.8516 4.67473C18.1983 6.00462 19.4535 7.42399 20.6088 8.92316C23.3217 12.4854 25.1516 16.4413 26.4584 20.7198C27.2421 23.3333 27.6677 26.0144 27.6995 28.7254C27.8308 36.8304 25.0522 43.7899 19.4501 49.5739C18.5389 50.4911 17.5545 51.3325 16.5066 52.0899C15.9517 52.0899 15.6892 51.6643 15.4604 51.2725C15.0439 50.5459 14.7667 49.7479 14.643 48.9195C14.4462 47.939 14.3168 46.9584 14.3805 45.946V45.4885C14.3355 45.391 13.8462 0.394426 14.0412 0.163818Z" fill="#599636"/>
<path d="M14.0414 0.0645008C13.9758 -0.0667393 13.9102 0.0326282 13.8446 0.0963734C13.8764 0.752574 13.6477 1.33753 13.2896 1.89624C12.8959 2.4512 12.3747 2.87679 11.8516 3.33426C8.94555 5.85032 6.65823 8.88946 4.82649 12.2886C2.38917 16.8632 1.13302 21.766 0.776793 26.9275C0.61368 28.7892 1.3655 35.3587 1.95233 37.2542C3.55346 42.2863 6.42949 46.5029 10.1548 50.1626C11.0698 51.0438 12.0484 51.8612 13.0609 52.6468C13.3552 52.6468 13.3871 52.3843 13.4546 52.1893C13.5836 51.7721 13.682 51.346 13.7489 50.9144L14.4051 46.0135L14.0414 0.0645008Z" fill="#6CAC48"/>
<path d="M15.642 54.081C15.7076 53.3311 16.0676 52.7086 16.4594 52.088C16.0657 51.9249 15.7732 51.6006 15.5445 51.2387C15.3473 50.8961 15.184 50.535 15.057 50.1607C14.5996 48.7883 14.5021 47.3484 14.3708 45.946V45.0967C14.2077 45.2279 14.174 46.3378 14.174 46.5028C14.0786 47.985 13.8819 49.459 13.5853 50.9144C13.4878 51.5031 13.4222 52.0899 13.0603 52.613C13.0603 52.6786 13.0603 52.7442 13.0922 52.8417C13.6809 54.5741 13.8421 56.3383 13.9415 58.1363V58.7925C13.9415 59.5762 13.9096 59.4112 14.5602 59.6737C14.8227 59.7712 15.1152 59.8049 15.3776 59.9999C15.5745 59.9999 15.6064 59.8368 15.6064 59.7056L15.5089 58.6275V55.6203C15.477 55.0953 15.5745 54.5741 15.6401 54.0829L15.642 54.081Z" fill="#C2BFBF"/>
</svg>
