<svg width="56" height="38" viewBox="0 0 56 38" fill="none" xmlns="http://www.w3.org/2000/svg">
<path d="M13.3987 34.4547H11.2765C11.2014 30.8726 10.9948 27.5049 10.6568 24.3493H10.638L7.40688 34.4547H5.79113L2.57931 24.3493H2.56086C2.3226 27.379 2.17251 30.7475 2.11017 34.4547H0.175781C0.300448 29.9466 0.613756 25.7202 1.11448 21.7751H3.74479L6.8061 31.092H6.82497L9.90515 21.7751H12.4219C12.973 26.396 13.2986 30.6228 13.3987 34.4547ZM22.6023 25.0997C21.7383 29.7887 20.5982 33.1957 19.1834 35.3224C18.0811 36.9595 16.8734 37.7789 15.5582 37.7789C15.2076 37.7789 14.775 37.6731 14.2623 37.4631V36.3325C14.5129 36.3686 14.8069 36.3891 15.1449 36.3891C15.7592 36.3891 16.2529 36.2201 16.6294 35.8814C17.0797 35.4688 17.3048 35.005 17.3048 34.492C17.3048 34.1402 17.1293 33.4209 16.7791 32.3317L14.4502 25.0993H16.5351L18.2066 30.5084C18.5822 31.7366 18.7389 32.5941 18.6761 33.0825C19.5902 30.6413 20.2287 27.9794 20.5925 25.0989H22.6023V25.0997Z" fill="#5D87A1"/>
<path d="M50.8514 34.4546H44.8231V21.7751H46.851V32.8938H50.8514V34.4546ZM43.245 34.7609L40.9141 33.6106C41.1208 33.4409 41.3184 33.2572 41.4964 33.0443C42.4872 31.8805 42.9814 30.1593 42.9814 27.8797C42.9814 23.6849 41.3353 21.5864 38.0418 21.5864C36.4269 21.5864 35.1671 22.1187 34.2661 23.1837C33.2762 24.3484 32.782 26.0634 32.782 28.3308C32.782 30.5596 33.22 32.1946 34.0964 33.2317C34.8981 34.1712 36.1066 34.6416 37.7228 34.6416C38.3256 34.6416 38.8788 34.5678 39.3828 34.4189L42.4175 36.1856L43.245 34.7609ZM35.6941 31.9174C35.1806 31.0915 34.9239 29.7652 34.9239 27.9367C34.9239 24.7441 35.8938 23.146 37.8356 23.146C38.8505 23.146 39.5944 23.5282 40.0701 24.291C40.5827 25.1181 40.8407 26.4324 40.8407 28.2356C40.8407 31.4544 39.87 33.064 37.9295 33.064C36.9141 33.0644 36.1702 32.6834 35.6941 31.9174ZM31.8983 30.9401C31.8983 32.0154 31.5038 32.8975 30.7156 33.5885C29.9266 34.2766 28.8685 34.6215 27.5427 34.6215C26.3026 34.6215 25.1002 34.2254 23.9364 33.4372L24.4814 32.3484C25.4828 32.8499 26.3896 33.0993 27.2036 33.0993C27.9676 33.0993 28.5647 32.9299 28.9977 32.594C29.4304 32.2569 29.6883 31.7841 29.6883 31.1862C29.6883 30.4329 29.163 29.789 28.1993 29.2498C27.3106 28.7618 25.5333 27.7415 25.5333 27.7415C24.57 27.0394 24.0877 26.2856 24.0877 25.0439C24.0877 24.0162 24.4474 23.1866 25.1671 22.5555C25.8876 21.9219 26.8173 21.6061 27.9569 21.6061C29.1339 21.6061 30.2038 21.9215 31.1675 22.5456L30.6787 23.6348C29.8544 23.2846 29.0408 23.1095 28.2382 23.1095C27.5882 23.1095 27.0863 23.2657 26.7373 23.5795C26.3855 23.8919 26.1685 24.2918 26.1685 24.7823C26.1685 25.5319 26.7049 26.1839 27.6949 26.7339C28.5954 27.2227 30.417 28.2606 30.417 28.2606C31.4049 28.9615 31.8983 29.7082 31.8983 30.9401Z" fill="#F8981D"/>
<path d="M53.3973 17.5283C52.1711 17.4971 51.2217 17.6206 50.4249 17.9577C50.1949 18.0495 49.8291 18.0495 49.7971 18.3403C49.9214 18.4633 49.9357 18.6618 50.0436 18.8316C50.2273 19.1379 50.5476 19.55 50.84 19.7649C51.1611 20.011 51.4834 20.2546 51.8213 20.4691C52.4171 20.8377 53.0926 21.0522 53.6733 21.4196C54.0116 21.6333 54.3478 21.9097 54.6866 22.1398C54.8531 22.2624 54.9597 22.4613 55.1758 22.538V22.4912C55.0676 22.3534 55.0368 22.1541 54.9306 22.0007L54.4705 21.557C54.0259 20.9599 53.4735 20.4387 52.8777 20.0106C52.3872 19.6727 51.3144 19.2134 51.1155 18.6483L51.0844 18.6171C51.4215 18.5855 51.8213 18.4633 52.1416 18.3694C52.6628 18.232 53.1381 18.2632 53.6728 18.1258C53.9189 18.0643 54.1629 17.9872 54.4098 17.9113V17.7731C54.1326 17.4971 53.9349 17.1305 53.6433 16.8697C52.8633 16.1959 52.0038 15.5369 51.1155 14.9853C50.6398 14.6782 50.028 14.4805 49.5215 14.2193C49.339 14.127 49.0315 14.0815 48.924 13.9281C48.6493 13.591 48.4946 13.1473 48.2953 12.7483C47.8525 11.9064 47.4223 10.9722 47.0401 10.0819C46.7637 9.48482 46.5955 8.88855 46.2584 8.33616C44.6796 5.73209 42.965 4.15489 40.3298 2.6068C39.7634 2.28447 39.0897 2.14709 38.37 1.97814L37.2205 1.91744C36.9752 1.81 36.7296 1.51843 36.5155 1.38064C35.6412 0.829476 33.3902 -0.365113 32.7472 1.21209C32.333 2.20902 33.3599 3.18913 33.7126 3.69477C33.973 4.04581 34.3105 4.44523 34.4926 4.84384C34.6004 5.10424 34.6308 5.38064 34.7386 5.65581C34.9839 6.33 35.2131 7.08005 35.5354 7.70913C35.7036 8.02982 35.8869 8.36691 36.1018 8.65726C36.2248 8.82703 36.4388 8.90208 36.4856 9.17889C36.2719 9.484 36.2551 9.94453 36.1325 10.3275C35.5814 12.0585 35.7966 14.2029 36.5779 15.475C36.8223 15.858 37.4054 16.7012 38.1854 16.378C38.876 16.1024 38.723 15.2293 38.9215 14.4637C38.967 14.2788 38.9371 14.1574 39.029 14.036V14.0659C39.2426 14.4945 39.4583 14.9074 39.6564 15.3372C40.1317 16.0873 40.9593 16.8689 41.6486 17.3885C42.0157 17.6657 42.3064 18.1397 42.7661 18.3091V18.2632H42.7358C42.6427 18.1258 42.5065 18.0643 42.3843 17.9577C42.1079 17.6817 41.802 17.3446 41.5875 17.0387C40.9453 16.1803 40.3769 15.2302 39.8725 14.2496C39.6257 13.7739 39.4128 13.2539 39.2139 12.7791C39.1212 12.5958 39.1212 12.3194 38.9675 12.2271C38.737 12.5638 38.4011 12.8553 38.233 13.2679C37.9414 13.9277 37.9111 14.7393 37.8028 15.5833L37.7425 15.6128C37.2545 15.4902 37.0847 14.9853 36.8994 14.5568C36.4405 13.4684 36.3634 11.7214 36.7616 10.4657C36.8682 10.1446 37.3296 9.13337 37.1454 8.82744C37.0532 8.53423 36.7464 8.36732 36.5783 8.13644C36.3806 7.8461 36.1641 7.47866 36.0263 7.15633C35.6589 6.29883 35.4739 5.34866 35.0782 4.49157C34.8932 4.09215 34.5721 3.67878 34.3121 3.31093C34.0201 2.89756 33.699 2.60639 33.4682 2.11634C33.3919 1.94779 33.2849 1.67221 33.4075 1.4889C33.4374 1.36587 33.4997 1.31994 33.6219 1.28919C33.8204 1.12146 34.3876 1.33471 34.5865 1.42698C35.1545 1.65663 35.6293 1.8711 36.1034 2.19261C36.3179 2.3464 36.5479 2.63756 36.8231 2.71424H37.1454C37.6347 2.82087 38.1862 2.74377 38.6468 2.88238C39.4583 3.1432 40.1936 3.52581 40.853 3.93877C42.8596 5.21128 44.5143 7.01936 45.6314 9.17889C45.8147 9.53075 45.8926 9.85308 46.0599 10.2201C46.3827 10.9714 46.7817 11.7374 47.102 12.4727C47.4239 13.1924 47.7307 13.9273 48.1904 14.5252C48.4196 14.8467 49.3407 15.0153 49.7536 15.1838C50.0591 15.3212 50.5348 15.4434 50.8104 15.612C51.3316 15.9331 51.8508 16.3017 52.3409 16.6548C52.5849 16.8385 53.3517 17.2216 53.3973 17.5283ZM37.7704 4.21517C37.5589 4.21297 37.3481 4.2389 37.1434 4.29227V4.32302H37.1729C37.2963 4.56785 37.5108 4.73763 37.6638 4.95128C37.7872 5.19693 37.8943 5.44052 38.0152 5.68575L38.0448 5.6554C38.2609 5.50244 38.3683 5.25721 38.3683 4.88936C38.2752 4.78109 38.2609 4.67529 38.1834 4.56785C38.0931 4.41447 37.8943 4.3382 37.7704 4.21517Z" fill="#5D87A1"/>
<path d="M54.8563 34.4528H55.1737V32.8993H54.6976L54.3092 33.9594L53.8872 32.8993H53.4288V34.4528H53.7285V33.2709H53.7453L54.1874 34.4528H54.4158L54.8563 33.2709V34.4528ZM52.2994 34.4528H52.6352V33.1626H53.0749V32.8989H51.8413V33.1626H52.2986L52.2994 34.4528Z" fill="#F8981D"/>
</svg>
