<svg width="70" height="15" viewBox="0 0 70 15" fill="none" xmlns="http://www.w3.org/2000/svg">
<path d="M46.5339 0.666016H58.7267V2.91649H53.89V14.7559H51.4714V2.91649H46.5339V0.666016Z" fill="white"/>
<path d="M26.4811 0.666016V2.91649H16.7077V6.5368H24.5674V8.78727H16.7077V12.5054H26.4811V14.7559H14.2893V2.91649H14.2883V0.666016H26.4811Z" fill="white"/>
<path d="M32.5692 0.671875H29.4043L40.7404 14.7618H43.9146L38.2458 7.72167L43.9055 0.682625L40.7404 0.687516L36.6612 5.75373L32.5692 0.671875Z" fill="white"/>
<path d="M35.8171 10.7364L34.2321 8.76575L29.3954 14.7726H32.5694L35.8171 10.7364Z" fill="white"/>
<path fill-rule="evenodd" clip-rule="evenodd" d="M14.3743 14.7559L3.02299 0.660156H0V14.75H2.41839V3.67186L11.3362 14.7559H14.3743Z" fill="white"/>
<path d="M59.2701 14.6698C59.093 14.6698 58.9423 14.6085 58.8162 14.4857C58.6901 14.363 58.6277 14.2145 58.6293 14.0385C58.6277 13.8673 58.6901 13.7204 58.8162 13.5977C58.9423 13.4749 59.093 13.4136 59.2701 13.4136C59.4405 13.4136 59.5896 13.4749 59.7157 13.5977C59.8436 13.7204 59.9074 13.8673 59.9092 14.0385C59.9074 14.1547 59.8779 14.2613 59.819 14.3565C59.7584 14.4534 59.6814 14.5293 59.5846 14.5842C59.4896 14.6408 59.3847 14.6698 59.2701 14.6698Z" fill="white"/>
<path d="M63.3978 8.73413H64.4694V12.8629C64.4678 13.2424 64.3858 13.567 64.2253 13.8399C64.0631 14.1127 63.8386 14.321 63.5502 14.468C63.2634 14.6133 62.9275 14.6876 62.5457 14.6876C62.1966 14.6876 61.8837 14.6246 61.6051 14.5019C61.3265 14.3792 61.1054 14.1951 60.9431 13.9529C60.7792 13.7107 60.6989 13.4087 60.6989 13.047H61.7723C61.7739 13.2053 61.81 13.3425 61.8787 13.4571C61.9475 13.5718 62.0425 13.659 62.1639 13.7203C62.2866 13.7817 62.4277 13.8124 62.5865 13.8124C62.7587 13.8124 62.9062 13.7769 63.0257 13.7042C63.1453 13.6331 63.2372 13.5266 63.3011 13.3845C63.3633 13.244 63.3962 13.0696 63.3978 12.8629V8.73413Z" fill="white"/>
<path d="M68.8788 10.3489C68.8527 10.0986 68.7379 9.9032 68.5381 9.76433C68.3364 9.62385 68.076 9.55442 67.7563 9.55442C67.532 9.55442 67.3387 9.58834 67.178 9.65454C67.0174 9.72235 66.8929 9.81277 66.8076 9.92741C66.7225 10.0421 66.6799 10.1729 66.6765 10.3198C66.6765 10.4425 66.706 10.5491 66.7634 10.6379C66.8208 10.7283 66.8977 10.8042 66.9977 10.8656C67.096 10.9285 67.2058 10.9802 67.3255 11.0222C67.4467 11.0642 67.568 11.0997 67.6892 11.1288L68.2479 11.266C68.4725 11.3177 68.6905 11.3871 68.8986 11.4759C69.1066 11.5631 69.2951 11.6745 69.4605 11.8085C69.6261 11.9426 69.7572 12.104 69.8539 12.293C69.9505 12.4819 69.9997 12.7031 69.9997 12.9582C69.9997 13.3021 69.9112 13.6041 69.7325 13.8657C69.554 14.1256 69.2967 14.3291 68.9591 14.476C68.6232 14.6214 68.2169 14.6956 67.7384 14.6956C67.2763 14.6956 66.8732 14.6246 66.534 14.4825C66.1933 14.342 65.9276 14.1353 65.7359 13.8641C65.5442 13.5928 65.441 13.2618 65.4263 12.8726H66.4882C66.5029 13.0761 66.5685 13.2456 66.6799 13.3829C66.7929 13.5185 66.9403 13.6186 67.1207 13.6865C67.3026 13.7526 67.5057 13.7866 67.7302 13.7866C67.9646 13.7866 68.171 13.751 68.3496 13.6816C68.5265 13.6122 68.6658 13.5153 68.7658 13.3894C68.8675 13.265 68.9183 13.1181 68.9199 12.9502C68.9183 12.7968 68.8723 12.6692 68.7838 12.5691C68.6937 12.469 68.5692 12.385 68.4102 12.3172C68.2497 12.2494 68.0628 12.188 67.8498 12.1347L67.1715 11.9636C66.6815 11.8392 66.2931 11.6503 66.0095 11.3968C65.7246 11.1433 65.5835 10.8074 65.5835 10.386C65.5835 10.0405 65.6786 9.7369 65.8704 9.47693C66.0604 9.21697 66.321 9.01512 66.6504 8.87141C66.9814 8.7261 67.355 8.65503 67.7711 8.65503C68.1939 8.65503 68.5642 8.7261 68.8838 8.87141C69.2033 9.01512 69.4541 9.21535 69.6359 9.47046C69.8178 9.72559 69.9128 10.0178 69.9178 10.3489H68.8788Z" fill="white"/>
</svg>
