<svg width="56" height="15" viewBox="0 0 56 15" fill="none" xmlns="http://www.w3.org/2000/svg">
<g clip-path="url(#clip0_318_259)">
<path d="M4.18784 0.437132C2.05935 0.437132 0.356567 2.13992 0.356567 4.2684V14.9108H3.76214V4.2684C3.76214 3.92784 4.18784 3.75757 4.48582 3.97041L13.4169 13.7699C15.886 16.239 19.9727 14.4511 19.9727 11.1306V0.403076H16.5671V11.1306C16.5671 11.4712 16.1414 11.6415 15.8604 11.4286L6.96338 1.6376C6.11198 0.786203 5.43087 0.445646 4.19635 0.445646M21.6584 0.437132V11.0795C21.6584 12.0957 22.0621 13.0702 22.7806 13.7887C23.4991 14.5072 24.4736 14.9108 25.4897 14.9108H39.7761C40.9615 14.9108 42.0985 14.4399 42.9367 13.6016C43.775 12.7634 44.2459 11.6265 44.2459 10.441C44.2459 9.25553 43.775 8.11862 42.9367 7.28037C42.0985 6.44211 40.9615 5.97119 39.7761 5.97119H30.8194C30.5372 5.97119 30.2665 5.85906 30.0669 5.65948C29.8673 5.45989 29.7552 5.1892 29.7552 4.90695C29.7552 4.62469 29.8673 4.354 30.0669 4.15441C30.2665 3.95483 30.5372 3.8427 30.8194 3.8427H45.9316V14.9108H49.3372V3.8427H55.297V0.437132H30.8194C29.6339 0.437132 28.497 0.908057 27.6588 1.74631C26.8205 2.58456 26.3496 3.72148 26.3496 4.90695C26.3496 6.09241 26.8205 7.22933 27.6588 8.06758C28.497 8.90584 29.6339 9.37676 30.8194 9.37676H39.759C40.0413 9.37676 40.312 9.48889 40.5116 9.68847C40.7112 9.88805 40.8233 10.1587 40.8233 10.441C40.8233 10.7233 40.7112 10.994 40.5116 11.1935C40.312 11.3931 40.0413 11.5052 39.759 11.5052H25.4982C25.3853 11.5052 25.277 11.4604 25.1972 11.3806C25.1174 11.3007 25.0725 11.1924 25.0725 11.0795V0.437132H21.6584Z" fill="white"/>
</g>
<defs>
<clipPath id="clip0_318_259">
<rect width="55" height="14.4992" fill="white" transform="translate(0.356445 0.437012)"/>
</clipPath>
</defs>
</svg>
