<svg width="71" height="44" viewBox="0 0 71 44" fill="none" xmlns="http://www.w3.org/2000/svg">
<path d="M34.9098 43.4358C34.6787 43.4358 34.4493 43.3752 34.2467 43.2586L32.1363 42.0091C31.8211 41.8328 31.9749 41.7705 32.0789 41.7346C32.4992 41.5874 32.5844 41.5542 33.0331 41.2994C33.0802 41.2725 33.1419 41.282 33.1902 41.3105L34.8115 42.2726C34.87 42.3042 34.9531 42.3042 35.0074 42.2726L41.329 38.6236C41.3876 38.5904 41.4256 38.5223 41.4256 38.4527V31.1579C41.4256 31.0851 41.3876 31.0202 41.3278 30.9839L35.0087 27.338C34.9501 27.3032 34.8726 27.3032 34.814 27.338L28.4962 30.9839C28.435 31.0187 28.396 31.0867 28.396 31.1563V38.4511C28.396 38.5208 28.434 38.5872 28.4941 38.6204L30.2253 39.6205C31.1652 40.0905 31.7396 39.5366 31.7396 38.9796V31.7798C31.7396 31.6769 31.8203 31.5978 31.9232 31.5978H32.7239C32.8235 31.5978 32.9058 31.6769 32.9058 31.7798V38.9828C32.9058 40.2361 32.2222 40.956 31.0339 40.956C30.6683 40.956 30.3803 40.956 29.5765 40.5605L27.9181 39.6047C27.5083 39.3673 27.2551 38.9243 27.2551 38.4511V31.1563C27.2551 30.6816 27.5083 30.2385 27.9181 30.0044L34.2461 26.3538C34.6465 26.1275 35.1781 26.1275 35.5753 26.3538L41.8954 30.0059C42.3036 30.2417 42.5584 30.6832 42.5584 31.1579V38.4527C42.5584 38.9258 42.3036 39.3673 41.8954 39.6047L35.5753 43.2553C35.3728 43.3724 35.1433 43.4325 34.9091 43.4325" fill="#689F63"/>
<path d="M36.8623 38.4092C34.0963 38.4092 33.5164 37.1395 33.5164 36.0745C33.5164 35.9733 33.598 35.8926 33.6994 35.8926H34.516C34.6061 35.8926 34.6821 35.9582 34.6963 36.0473C34.8198 36.8794 35.1869 37.299 36.8595 37.299C38.1918 37.299 38.7583 36.998 38.7583 36.2915C38.7583 35.8848 38.5969 35.5826 36.5272 35.38C34.796 35.2091 33.7263 34.8278 33.7263 33.4432C33.7263 32.1678 34.8024 31.4083 36.6047 31.4083C38.6286 31.4083 39.6318 32.1108 39.7584 33.6204C39.7631 33.6726 39.7442 33.7233 39.7093 33.7613C39.6745 33.7977 39.6255 33.8198 39.5748 33.8198H38.7536C38.6681 33.8198 38.5938 33.7597 38.5764 33.6774C38.3786 32.8023 37.9007 32.5222 36.6015 32.5222C35.1473 32.5222 34.978 33.0286 34.978 33.4084C34.978 33.8689 35.1774 34.0034 37.1395 34.2629C39.0827 34.5208 40.0052 34.8848 40.0052 36.2503C40.0052 37.627 38.8564 38.4166 36.8531 38.4166M44.553 30.6804H44.7651C44.9391 30.6804 44.9724 30.5585 44.9724 30.4873C44.9724 30.3006 44.8442 30.3006 44.773 30.3006H44.5546L44.553 30.6804ZM44.2951 30.0822H44.7651C44.9265 30.0822 45.2429 30.0822 45.2429 30.443C45.2429 30.6946 45.0815 30.7468 44.985 30.7785C45.1733 30.7911 45.186 30.9145 45.2113 31.0886C45.224 31.1978 45.2445 31.3861 45.2825 31.4494H44.9929C44.985 31.3861 44.9407 31.038 44.9407 31.019C44.9217 30.9414 44.8948 30.9035 44.7983 30.9035H44.5594V31.451H44.2951V30.0822ZM43.7302 30.7626C43.7302 31.3291 44.1875 31.788 44.7492 31.788C45.3157 31.788 45.773 31.3196 45.773 30.7626C45.773 30.1946 45.3094 29.7436 44.7477 29.7436C44.1938 29.7436 43.7286 30.1882 43.7286 30.7611M45.9693 30.7658C45.9693 31.4367 45.4202 31.9842 44.7508 31.9842C44.0862 31.9842 43.5324 31.4431 43.5324 30.7658C43.5324 30.0759 44.0989 29.5474 44.7508 29.5474C45.4075 29.5474 45.9677 30.0775 45.9677 30.7658" fill="#689F63"/>
<path fill-rule="evenodd" clip-rule="evenodd" d="M15.3338 14.8927C15.3338 14.6015 15.1803 14.3341 14.929 14.1893L8.22669 10.333C8.11355 10.2666 7.9868 10.2318 7.85831 10.227H7.789C7.66051 10.2318 7.53376 10.2666 7.41872 10.333L0.716687 14.1893C0.466986 14.3349 0.311279 14.6023 0.311279 14.8935L0.325995 25.2803C0.325995 25.4242 0.400368 25.5587 0.526958 25.63C0.650385 25.7059 0.805458 25.7059 0.928884 25.63L4.91333 23.3482C5.16493 23.1985 5.31842 22.9339 5.31842 22.6456V17.7932C5.31842 17.5036 5.47191 17.2362 5.72272 17.0922L7.41904 16.1152C7.545 16.0424 7.6833 16.0064 7.82413 16.0064C7.96275 16.0064 8.10421 16.0421 8.22669 16.1151L9.92222 17.0917C10.1732 17.2357 10.3273 17.5031 10.3273 17.7927V22.6448C10.3273 22.9328 10.4829 23.1986 10.7332 23.3474L14.7151 25.6276C14.8401 25.702 14.9957 25.702 15.1202 25.6276C15.243 25.5564 15.3208 25.4219 15.3208 25.2779L15.3338 14.8927ZM46.9606 20.3006C46.9606 20.373 46.9222 20.4399 46.8594 20.4757L44.5573 21.8026C44.4948 21.8386 44.4176 21.8386 44.3552 21.8026L42.0529 20.4757C41.9896 20.4397 41.9516 20.3728 41.9516 20.3006V17.6429C41.9516 17.5704 41.9896 17.5036 42.0513 17.4672L44.3521 16.138C44.4154 16.1016 44.4929 16.1016 44.5562 16.138L46.8586 17.4672C46.9219 17.5036 46.9599 17.5704 46.9599 17.6429L46.9606 20.3006ZM47.5825 0.615444C47.4569 0.545503 47.304 0.547401 47.18 0.619716C47.0565 0.692506 46.9803 0.825427 46.9803 0.969424V11.2549C46.9803 11.3562 46.9265 11.4496 46.8388 11.5002C46.7518 11.5508 46.6434 11.5508 46.5555 11.5002L44.8766 10.5332C44.6266 10.3886 44.3187 10.3886 44.0677 10.5332L37.3632 14.4026C37.1127 14.5466 36.9581 14.814 36.9581 15.102V22.8431C36.9581 23.1326 37.1127 23.3985 37.3632 23.5441L44.0677 27.4162C44.3181 27.5602 44.6263 27.5602 44.8774 27.4162L51.582 23.5425C51.832 23.3969 51.9871 23.1311 51.9871 22.8415V3.54903C51.9871 3.25534 51.8273 2.98522 51.5709 2.8417L47.5825 0.615444ZM69.9089 17.5729C70.1579 17.4283 70.3113 17.1612 70.3113 16.8732V14.9971C70.3113 14.7085 70.1578 14.4422 69.9082 14.2969L63.2464 10.4296C62.9948 10.284 62.6862 10.284 62.4346 10.4296L55.7317 14.2985C55.48 14.4441 55.3266 14.7099 55.3266 14.9995V22.7374C55.3266 23.0285 55.4832 23.2975 55.7348 23.4415L62.3951 27.2377C62.6403 27.3785 62.941 27.3801 63.1894 27.2424L67.2182 25.0033C67.3448 24.9321 67.4255 24.7976 67.4255 24.652C67.4255 24.5065 67.3479 24.3704 67.2214 24.2992L60.4772 20.4287C60.3506 20.3574 60.2731 20.2229 60.2731 20.0789V17.6516C60.2731 17.5066 60.3491 17.3731 60.4756 17.3009L62.5739 16.0904C62.6989 16.0176 62.8524 16.0176 62.9774 16.0904L65.0772 17.3009C65.2022 17.3721 65.2798 17.5066 65.2798 17.6506V19.559C65.2798 19.703 65.3573 19.8375 65.4823 19.9103C65.6073 19.9815 65.7624 19.9815 65.8874 19.9087L69.9089 17.5729Z" fill="white"/>
<path fill-rule="evenodd" clip-rule="evenodd" d="M62.7426 17.2109C62.7901 17.1829 62.8496 17.1829 62.8977 17.2109L64.1842 17.9531C64.2323 17.9809 64.2617 18.0322 64.2617 18.0876V19.5734C64.2617 19.6288 64.2323 19.6801 64.1842 19.708L62.8977 20.4501C62.8496 20.4781 62.7901 20.4781 62.7426 20.4501L61.4569 19.708C61.4079 19.6801 61.3778 19.6288 61.3778 19.5734V18.0876C61.3778 18.0322 61.4063 17.9809 61.4553 17.9531L62.7426 17.2109Z" fill="#689F63"/>
<mask id="mask0_318_162" style="mask-type:luminance" maskUnits="userSpaceOnUse" x="18" y="10" width="16" height="18">
<path d="M25.744 10.4682L19.0774 14.3161C18.8277 14.4601 18.6746 14.7259 18.6746 15.0133V22.7144C18.6746 23.002 18.8277 23.2676 19.0774 23.4116L25.7445 27.2625C25.9937 27.4061 26.301 27.4061 26.5499 27.2625L33.2159 23.4116C33.4643 23.2676 33.6178 23.0018 33.6178 22.7144V15.0133C33.6178 14.7259 33.4643 14.4601 33.2143 14.3161L26.5493 10.4682C26.4243 10.3965 26.285 10.3606 26.1458 10.3606C26.0065 10.3606 25.8673 10.3965 25.7423 10.4682" fill="white"/>
</mask>
<g mask="url(#mask0_318_162)">
<path d="M40.3545 13.6627L21.5692 4.45483L11.9373 24.104L30.7221 33.3123L40.3545 13.6627Z" fill="url(#paint0_linear_318_162)"/>
</g>
<mask id="mask1_318_162" style="mask-type:luminance" maskUnits="userSpaceOnUse" x="18" y="10" width="16" height="18">
<path d="M18.8396 23.2034C18.9034 23.2862 18.9831 23.3579 19.077 23.4117L24.7957 26.7149L25.7483 27.2624C25.8907 27.3447 26.0531 27.3795 26.2126 27.3676C26.2657 27.3634 26.3189 27.3534 26.3708 27.3387L33.402 14.4644C33.3482 14.4058 33.2852 14.3568 33.2146 14.3157L28.8495 11.7949L26.542 10.4673C26.4765 10.4293 26.4055 10.4024 26.3331 10.3834L18.8396 23.2034Z" fill="white"/>
</mask>
<g mask="url(#mask1_318_162)">
<path d="M10.7178 16.3861L23.9821 34.3388L41.5245 21.3781L28.2593 3.4259L10.7178 16.3861Z" fill="url(#paint1_linear_318_162)"/>
</g>
<mask id="mask2_318_162" style="mask-type:luminance" maskUnits="userSpaceOnUse" x="19" y="10" width="15" height="18">
<path d="M26.0663 10.3651C25.9544 10.3761 25.8451 10.411 25.7443 10.4682L19.0967 14.305L26.2649 27.3613C26.3646 27.3471 26.4627 27.3138 26.5513 27.2626L33.2179 23.4117C33.4236 23.2924 33.5644 23.0905 33.6072 22.8616L26.2997 10.3782C26.2459 10.3676 26.1921 10.3621 26.1367 10.3621C26.1146 10.3621 26.0924 10.3632 26.0703 10.3652" fill="white"/>
</mask>
<g mask="url(#mask2_318_162)">
<path d="M19.0962 10.3621V27.3616H33.604V10.3621H19.0962Z" fill="url(#paint2_linear_318_162)"/>
</g>
<defs>
<linearGradient id="paint0_linear_318_162" x1="30.9562" y1="9.04431" x2="21.3249" y2="28.6921" gradientUnits="userSpaceOnUse">
<stop offset="0.3" stop-color="#3E863D"/>
<stop offset="0.5" stop-color="#55934F"/>
<stop offset="0.8" stop-color="#5AAD45"/>
</linearGradient>
<linearGradient id="paint1_linear_318_162" x1="17.4294" y1="25.4653" x2="34.9725" y2="12.5031" gradientUnits="userSpaceOnUse">
<stop offset="0.57" stop-color="#3E863D"/>
<stop offset="0.72" stop-color="#619857"/>
<stop offset="1" stop-color="#76AC64"/>
</linearGradient>
<linearGradient id="paint2_linear_318_162" x1="19.1011" y1="18.8623" x2="33.6067" y2="18.8623" gradientUnits="userSpaceOnUse">
<stop offset="0.16" stop-color="#6BBF47"/>
<stop offset="0.38" stop-color="#79B461"/>
<stop offset="0.47" stop-color="#75AC64"/>
<stop offset="0.7" stop-color="#659E5A"/>
<stop offset="0.9" stop-color="#3E863D"/>
</linearGradient>
</defs>
</svg>
