<svg width="71" height="40" viewBox="0 0 71 40" fill="none" xmlns="http://www.w3.org/2000/svg">
<mask id="mask0_318_197" style="mask-type:luminance" maskUnits="userSpaceOnUse" x="1" y="2" width="68" height="36">
<path d="M1.50024 19.7988C1.50024 29.5602 16.5438 37.4736 35.1002 37.4736C53.6567 37.4736 68.7004 29.5602 68.7004 19.7988C68.7004 10.0374 53.6567 2.12388 35.1002 2.12388C16.5438 2.12388 1.50024 10.0374 1.50024 19.7988Z" fill="white"/>
</mask>
<g mask="url(#mask0_318_197)">
<path d="M1.50024 19.7988C1.50024 29.5602 16.5438 37.4736 35.1002 37.4736C53.6567 37.4736 68.7004 29.5602 68.7004 19.7988C68.7004 10.0374 53.6567 2.12388 35.1002 2.12388C16.5438 2.12388 1.50024 10.0374 1.50024 19.7988Z" fill="url(#paint0_radial_318_197)"/>
</g>
<mask id="mask1_318_197" style="mask-type:luminance" maskUnits="userSpaceOnUse" x="0" y="0" width="71" height="40">
<path d="M0.100098 0.111328H70.1001V39.4863H0.100098V0.111328Z" fill="white"/>
</mask>
<g mask="url(#mask1_318_197)">
<path d="M35.1002 36.1614C52.9319 36.1614 67.3877 28.8356 67.3877 19.7988C67.3877 10.7621 52.9319 3.43613 35.1002 3.43613C17.2686 3.43613 2.81274 10.7621 2.81274 19.7988C2.81274 28.8356 17.2686 36.1614 35.1002 36.1614Z" fill="#777BB3"/>
</g>
<mask id="mask2_318_197" style="mask-type:luminance" maskUnits="userSpaceOnUse" x="0" y="0" width="71" height="40">
<path d="M0.100098 0.111328H70.1001V39.4863H0.100098V0.111328Z" fill="white"/>
</mask>
<g mask="url(#mask2_318_197)">
<path d="M19.7553 21.8275C21.2216 21.8275 22.3162 21.5571 23.0087 21.0241C23.6939 20.4966 24.1671 19.5825 24.4152 18.3076C24.6464 17.1159 24.5583 16.2838 24.1534 15.8348C23.7394 15.3761 22.8442 15.1435 21.4928 15.1435H19.1496L17.8506 21.8275H19.7553ZM12.0914 30.061C11.9826 30.061 11.8793 30.0124 11.8102 29.9283C11.7409 29.8444 11.7129 29.7338 11.7336 29.6269L15.1763 11.9141C15.2096 11.7429 15.3597 11.6192 15.5342 11.6192H22.9539C25.2858 11.6192 27.0215 12.2524 28.1124 13.5013C29.2092 14.7568 29.5479 16.5118 29.119 18.7174C28.9445 19.616 28.6443 20.4505 28.2269 21.1976C27.809 21.9457 27.2566 22.6378 26.5849 23.2551C25.7809 24.0076 24.8709 24.5533 23.8826 24.8744C22.9101 25.1912 21.661 25.3518 20.1702 25.3518H17.1658L16.3078 29.766C16.2745 29.9373 16.1246 30.061 15.95 30.061H12.0914Z" fill="black"/>
<path d="M19.4501 15.508H21.4928C23.1238 15.508 23.6904 15.8659 23.8829 16.0792C24.2022 16.4333 24.2625 17.18 24.0573 18.2384C23.8266 19.4233 23.3991 20.2634 22.7863 20.7352C22.159 21.2181 21.1391 21.4629 19.7553 21.4629H18.2928L19.4501 15.508ZM22.9539 11.2545H15.534C15.185 11.2545 14.885 11.502 14.8184 11.8445L11.3757 29.5573C11.3342 29.7711 11.3903 29.9922 11.5287 30.1602C11.6673 30.3283 11.8736 30.4255 12.0914 30.4255H15.9499C16.299 30.4255 16.5991 30.1781 16.6657 29.8355L17.4663 25.7163H20.1702C21.6993 25.7163 22.9865 25.5496 23.9958 25.2209C25.0337 24.8836 25.9887 24.3118 26.8339 23.5214C27.533 22.8783 28.1088 22.1564 28.545 21.3756C28.9814 20.5945 29.295 19.7236 29.4769 18.7868C29.9284 16.4652 29.5616 14.606 28.3869 13.2614C27.2237 11.9297 25.3956 11.2545 22.9539 11.2545ZM17.4082 22.192H19.7553C21.311 22.192 22.4697 21.899 23.2311 21.3129C23.9926 20.7266 24.5062 19.7482 24.7731 18.3772C25.0284 17.0608 24.9121 16.1318 24.4242 15.5906C23.9356 15.0495 22.9587 14.7788 21.4928 14.7788H18.8491L17.4082 22.192ZM22.9539 11.9837C25.186 11.9837 26.8144 12.5695 27.8379 13.7411C28.8613 14.9128 29.1694 16.5482 28.7611 18.6478C28.593 19.5127 28.3088 20.3035 27.9086 21.0199C27.5079 21.7368 26.9847 22.3923 26.3382 22.9867C25.5677 23.7077 24.7118 24.2215 23.77 24.5276C22.8281 24.8344 21.6285 24.9872 20.1702 24.9872H16.8651L15.9499 29.6964H12.0914L15.534 11.9837H22.9539Z" fill="white"/>
<path d="M37.966 25.3518C37.8571 25.3518 37.7539 25.3032 37.6848 25.2191C37.6154 25.1351 37.5873 25.0247 37.6081 24.9177L39.1309 17.0805C39.2758 16.3352 39.2401 15.8002 39.0304 15.5742C38.9021 15.436 38.5166 15.2042 37.3768 15.2042H34.6179L32.7032 25.0567C32.6699 25.2281 32.5198 25.3518 32.3453 25.3518H28.5172C28.4083 25.3518 28.3051 25.3032 28.2359 25.2191C28.1666 25.1351 28.1385 25.0245 28.1593 24.9177L31.6019 7.20491C31.6352 7.03368 31.7853 6.90997 31.9598 6.90997H35.788C35.8968 6.90997 36 6.95858 36.0693 7.04255C36.1386 7.12665 36.1666 7.23712 36.1459 7.34406L35.3151 11.6192H38.283C40.5441 11.6192 42.0773 12.0178 42.9703 12.8378C43.8805 13.6744 44.1645 15.0121 43.8145 16.8141L42.2128 25.0567C42.1795 25.2281 42.0295 25.3518 41.8549 25.3518H37.966Z" fill="black"/>
<path d="M35.7882 6.5453H31.9601C31.6109 6.5453 31.3109 6.79273 31.2443 7.13532L27.8016 24.8481C27.7601 25.0619 27.8162 25.2829 27.9547 25.451C28.0933 25.6191 28.2996 25.7163 28.5174 25.7163H32.3455C32.6946 25.7163 32.9947 25.4689 33.0613 25.1263L34.9187 15.5687H37.377C38.5149 15.5687 38.7537 15.8118 38.7633 15.8222C38.8323 15.8965 38.9231 16.2404 38.7733 17.0109L37.2504 24.8481C37.2088 25.0619 37.265 25.2829 37.4035 25.451C37.5421 25.6191 37.7484 25.7163 37.9662 25.7163H41.8551C42.2041 25.7163 42.5043 25.4689 42.5709 25.1263L44.1725 16.8837C44.5484 14.9488 44.2268 13.4974 43.2172 12.5694C42.2537 11.6846 40.6398 11.2545 38.2833 11.2545H35.7574L36.504 7.41362C36.5454 7.19985 36.4894 6.97867 36.3509 6.81072C36.2123 6.64265 36.006 6.5453 35.7882 6.5453ZM35.7882 7.27447L34.873 11.9837H38.2833C40.4291 11.9837 41.9092 12.3582 42.7238 13.1063C43.5384 13.855 43.7824 15.0679 43.4568 16.7446L41.8551 24.9871H37.9662L39.4891 17.1501C39.6624 16.2585 39.5987 15.6504 39.2978 15.3262C38.9968 15.0019 38.3564 14.8396 37.377 14.8396H34.3175L32.3455 24.9871H28.5174L31.9601 7.27447H35.7882Z" fill="white"/>
<path d="M49.8716 21.8275C51.3379 21.8275 52.4325 21.5571 53.1251 21.0241C53.8102 20.4967 54.2835 19.5827 54.5316 18.3076C54.7629 17.1159 54.6748 16.2838 54.2697 15.8348C53.8557 15.3761 52.9605 15.1435 51.6091 15.1435H49.2659L47.9669 21.8275H49.8716ZM42.2079 30.061C42.0991 30.061 41.9958 30.0124 41.9266 29.9283C41.8574 29.8444 41.8292 29.7338 41.85 29.6269L45.2926 11.9141C45.326 11.7429 45.476 11.6192 45.6506 11.6192H53.0702C55.4022 11.6192 57.1378 12.2524 58.2289 13.5013C59.3256 14.7567 59.6642 16.5117 59.2355 18.7174C59.0607 19.616 58.7607 20.4505 58.3432 21.1976C57.9253 21.9457 57.3729 22.6378 56.7013 23.2551C55.8972 24.0076 54.9872 24.5533 53.999 24.8744C53.0264 25.1912 51.7773 25.3518 50.2865 25.3518H47.282L46.4244 29.766C46.391 29.9373 46.241 30.061 46.0664 30.061H42.2079Z" fill="black"/>
<path d="M49.5666 15.508H51.6092C53.2403 15.508 53.8068 15.8659 53.9993 16.0792C54.3188 16.4333 54.3791 17.18 54.1737 18.2382C53.9431 19.4233 53.5154 20.2634 52.9028 20.7352C52.2755 21.2181 51.2556 21.4629 49.8718 21.4629H48.4094L49.5666 15.508ZM53.0704 11.2545H45.6506C45.3016 11.2545 45.0015 11.502 44.9349 11.8445L41.4923 29.5573C41.4507 29.7711 41.5069 29.9922 41.6453 30.1602C41.7838 30.3283 41.9902 30.4255 42.208 30.4255H46.0665C46.4155 30.4255 46.7157 30.1781 46.7823 29.8355L47.5828 25.7163H50.2867C51.8157 25.7163 53.1029 25.5496 54.1122 25.2209C55.1502 24.8836 56.1054 24.3117 56.9506 23.5212C57.6497 22.8782 58.2252 22.1564 58.6615 21.3756C59.0979 20.5945 59.4114 19.7236 59.5934 18.7868C60.0448 16.465 59.6781 14.6059 58.5034 13.2613C57.3401 11.9297 55.5122 11.2545 53.0704 11.2545ZM47.5248 22.192H49.8718C51.4274 22.192 52.5862 21.899 53.3476 21.3129C54.1092 20.7266 54.6226 19.7482 54.8895 18.3772C55.145 17.0608 55.0287 16.1318 54.5406 15.5906C54.0521 15.0495 53.0751 14.7788 51.6092 14.7788H48.9655L47.5248 22.192ZM53.0704 11.9837C55.3025 11.9837 56.9308 12.5695 57.9543 13.7411C58.9778 14.9128 59.2859 16.5482 58.8776 18.6478C58.7095 19.5127 58.4252 20.3035 58.0251 21.0199C57.6244 21.7368 57.1012 22.3923 56.4547 22.9867C55.6842 23.7077 54.8283 24.2215 53.8864 24.5276C52.9446 24.8344 51.745 24.9872 50.2867 24.9872H46.9816L46.0665 29.6964H42.208L45.6506 11.9837H53.0704Z" fill="white"/>
</g>
<defs>
<radialGradient id="paint0_radial_318_197" cx="0" cy="0" r="1" gradientUnits="userSpaceOnUse" gradientTransform="translate(21.6739 8.33782) scale(44.1216 44.1216)">
<stop stop-color="#AEB2D5"/>
<stop offset="0.3" stop-color="#AEB2D5"/>
<stop offset="0.75" stop-color="#484C89"/>
<stop offset="1" stop-color="#484C89"/>
</radialGradient>
</defs>
</svg>
