<svg width="51" height="51" viewBox="0 0 51 51" fill="none" xmlns="http://www.w3.org/2000/svg">
<path d="M24.879 0.213182C22.8173 0.222762 20.8484 0.398596 19.116 0.705146C14.0125 1.60676 13.0859 3.49393 13.0859 6.97418V11.5705H25.1461V13.1026H13.0859H8.55984C5.05483 13.1026 1.98574 15.2094 1.02576 19.2171C-0.0815531 23.8108 -0.130669 26.6774 1.02576 31.474C1.88304 35.0444 3.93034 37.5884 7.43535 37.5884H11.5819V32.0784C11.5819 28.0978 15.0261 24.5865 19.116 24.5865H31.1621C34.5153 24.5865 37.1922 21.8256 37.1922 18.458V6.97418C37.1922 3.70581 34.4349 1.25062 31.1621 0.705146C29.0903 0.360276 26.9407 0.203602 24.879 0.213182ZM18.357 3.90994C19.6027 3.90994 20.62 4.94386 20.62 6.21515C20.62 7.48192 19.6027 8.50629 18.357 8.50629C17.1068 8.50629 16.0939 7.48192 16.0939 6.21515C16.0939 4.94386 17.1068 3.90994 18.357 3.90994Z" fill="url(#paint0_linear_318_566)"/>
<path d="M38.6964 13.1027V18.458C38.6964 22.61 35.1764 26.1046 31.1623 26.1046H19.1163C15.8166 26.1046 13.0862 28.9286 13.0862 32.233V43.7169C13.0862 46.9853 15.9283 48.9077 19.1163 49.8454C22.9338 50.9679 26.5947 51.1707 31.1623 49.8454C34.1985 48.9663 37.1924 47.1971 37.1924 43.7169V39.1205H25.1463V37.5884H37.1924H43.2225C46.7275 37.5884 48.0336 35.1436 49.2526 31.474C50.5117 27.6962 50.4581 24.0633 49.2526 19.2171C48.3864 15.7278 46.732 13.1027 43.2225 13.1027H38.6964ZM31.9214 42.1848C33.1716 42.1848 34.1844 43.2091 34.1844 44.4759C34.1844 45.7472 33.1716 46.7811 31.9214 46.7811C30.6756 46.7811 29.6583 45.7472 29.6583 44.4759C29.6583 43.2091 30.6756 42.1848 31.9214 42.1848Z" fill="url(#paint1_linear_318_566)"/>
<defs>
<linearGradient id="paint0_linear_318_566" x1="0.176758" y1="0.212768" x2="27.9861" y2="23.9102" gradientUnits="userSpaceOnUse">
<stop stop-color="#5A9FD4"/>
<stop offset="1" stop-color="#306998"/>
</linearGradient>
<linearGradient id="paint1_linear_318_566" x1="31.6316" y1="44.0895" x2="21.6546" y2="30.1088" gradientUnits="userSpaceOnUse">
<stop stop-color="#FFD43B"/>
<stop offset="1" stop-color="#FFE873"/>
</linearGradient>
</defs>
</svg>
