<svg width="61" height="61" viewBox="0 0 61 61" fill="none" xmlns="http://www.w3.org/2000/svg">
<path d="M30.5004 35.6183C33.4219 35.6183 35.7902 33.25 35.7902 30.3286C35.7902 27.4071 33.4219 25.0388 30.5004 25.0388C27.579 25.0388 25.2107 27.4071 25.2107 30.3286C25.2107 33.25 27.579 35.6183 30.5004 35.6183Z" fill="#61DAFB"/>
<path d="M30.4999 41.166C46.176 41.166 58.8839 36.3139 58.8839 30.3285C58.8839 24.3431 46.176 19.491 30.4999 19.491C14.8239 19.491 2.11597 24.3431 2.11597 30.3285C2.11597 36.3139 14.8239 41.166 30.4999 41.166Z" stroke="#61DAFB" stroke-width="2.58036"/>
<path d="M21.1141 35.7473C28.9521 49.3231 39.5081 57.9024 44.6916 54.9097C49.8752 51.917 47.7232 38.4856 39.8852 24.9097C32.0472 11.3339 21.4912 2.75455 16.3077 5.74725C11.1242 8.73995 13.2761 22.1714 21.1141 35.7473Z" stroke="#61DAFB" stroke-width="2.58036"/>
<path d="M21.114 24.9097C13.276 38.4856 11.1241 51.917 16.3076 54.9097C21.4911 57.9024 32.0471 49.3231 39.8852 35.7473C47.7232 22.1714 49.8751 8.73995 44.6916 5.74726C39.5081 2.75456 28.952 11.3339 21.114 24.9097Z" stroke="#61DAFB" stroke-width="2.58036"/>
</svg>
