<svg width="54" height="61" viewBox="0 0 54 61" fill="none" xmlns="http://www.w3.org/2000/svg">
<path fill-rule="evenodd" clip-rule="evenodd" d="M47.1297 12.1361C47.0857 11.8334 46.8221 11.6673 46.6023 11.6478C46.3826 11.6283 42.1148 11.5648 42.1148 11.5648C42.1148 11.5648 38.5405 8.09788 38.1889 7.74142C37.8373 7.38984 37.1488 7.49727 36.8803 7.5754C36.8754 7.5754 36.2113 7.78537 35.0833 8.13206C34.8978 7.52169 34.6194 6.77459 34.2239 6.02261C32.9543 3.59576 31.089 2.31153 28.838 2.30665C28.8331 2.30665 28.8331 2.30665 28.8282 2.30665C28.672 2.30665 28.5157 2.32129 28.3594 2.33594C28.2911 2.25782 28.2276 2.17969 28.1544 2.10156C27.1729 1.05172 25.9179 0.543884 24.4091 0.587831C21.5037 0.670842 18.6081 2.77053 16.2594 6.50114C14.6089 9.12331 13.3491 12.4193 12.9926 14.9731C9.65756 16.0083 7.32349 16.731 7.26978 16.7457C5.58514 17.273 5.53143 17.3267 5.3117 18.9137C5.16032 20.1101 0.750977 54.1982 0.750977 54.1982L37.6908 60.5852L53.7022 56.6056C53.7022 56.6056 47.1687 12.4389 47.1297 12.1361ZM33.2327 8.70337C32.383 8.96705 31.4162 9.26492 30.3664 9.59208C30.3468 8.12229 30.171 6.07144 29.4825 4.30379C31.6896 4.71885 32.7737 7.21406 33.2327 8.70337ZM28.4327 10.1927C26.499 10.7933 24.3847 11.4476 22.2655 12.1019C22.8612 9.82158 23.994 7.5461 25.3808 6.05679C25.8984 5.50013 26.6211 4.88487 27.4756 4.53329C28.2813 6.20816 28.4522 8.58618 28.4327 10.1927ZM24.4726 2.5215C25.1562 2.50685 25.7275 2.65822 26.2207 2.9805C25.4345 3.38579 24.6777 3.97175 23.9647 4.73349C22.119 6.71599 20.7029 9.7874 20.1414 12.7563C18.3835 13.2983 16.6598 13.8354 15.0777 14.3237C16.0738 9.65555 19.99 2.64846 24.4726 2.5215Z" fill="#95BF47"/>
<path fill-rule="evenodd" clip-rule="evenodd" d="M46.6026 11.6481C46.3829 11.6286 42.1152 11.5651 42.1152 11.5651C42.1152 11.5651 38.5408 8.09817 38.1892 7.74171C38.0574 7.60987 37.8816 7.54151 37.6912 7.51221V60.5806L53.6976 56.601C53.6976 56.601 47.1642 12.4392 47.1251 12.1364C47.0909 11.8337 46.8224 11.6676 46.6026 11.6481Z" fill="#5E8E3E"/>
<path fill-rule="evenodd" clip-rule="evenodd" d="M28.8181 19.8808L26.9576 26.8391C26.9576 26.8391 24.8824 25.8966 22.4262 26.048C18.8226 26.2775 18.7835 28.5481 18.8177 29.1194C19.013 32.2299 27.1969 32.9086 27.6608 40.1989C28.0221 45.9316 24.6187 49.8526 19.7162 50.1651C13.8322 50.5362 10.5898 47.0644 10.5898 47.0644L11.835 41.7615C11.835 41.7615 15.0969 44.2225 17.7044 44.0565C19.4085 43.9491 20.0189 42.5623 19.9554 41.5808C19.7015 37.5231 13.0313 37.7623 12.6114 31.0921C12.2549 25.4816 15.9416 19.7929 24.0767 19.2802C27.2164 19.08 28.8181 19.8808 28.8181 19.8808Z" fill="white"/>
</svg>
