<svg width="61" height="54" viewBox="0 0 61 54" fill="none" xmlns="http://www.w3.org/2000/svg">
<path d="M45.5113 50.0289C38.4386 54.0971 28.7136 54.5152 18.9295 50.3398C11.0076 46.9839 4.4344 41.1092 0.220703 34.3972C2.24328 36.0752 4.60291 37.4182 7.13108 38.5923C17.2352 43.3078 27.3373 42.9849 34.4464 38.6043C24.3334 30.8844 15.727 20.8027 9.32249 12.5802C7.97354 11.2375 6.96224 9.55925 5.95096 8.04889C13.7041 15.0974 26.0085 23.9915 30.3898 26.51C21.1211 16.7754 12.8616 4.69288 13.1981 5.02787C27.8621 19.7964 41.5151 28.1878 41.5151 28.1878C41.9668 28.4415 42.3154 28.6526 42.5957 28.8414C42.8912 28.0929 43.1503 27.3157 43.3686 26.51C45.7281 17.951 43.0322 8.21638 37.1323 0.161377C50.784 8.38464 58.8752 23.8239 55.5032 36.7468C55.4154 37.0955 55.3198 37.4396 55.2167 37.7775C61.9577 46.1692 60.2224 55.208 59.3799 53.5299C55.7229 46.4045 48.9531 48.5833 45.5113 50.0289Z" fill="url(#paint0_linear_318_269)"/>
<defs>
<linearGradient id="paint0_linear_318_269" x1="30.2428" y1="0.161377" x2="30.2428" y2="53.7356" gradientUnits="userSpaceOnUse">
<stop stop-color="#F88A36"/>
<stop offset="1" stop-color="#FD2020"/>
</linearGradient>
</defs>
</svg>
