<svg width="61" height="61" viewBox="0 0 61 61" fill="none" xmlns="http://www.w3.org/2000/svg">
<path d="M4.71606 30.4506C4.71606 40.6374 10.6361 49.4408 19.2206 53.6126L6.94422 19.9768C5.51624 23.1775 4.71606 26.7195 4.71606 30.4506Z" fill="#21759B"/>
<path d="M47.8256 29.1516C47.8256 25.9709 46.6831 23.7682 45.7032 22.0538C44.3986 19.9339 43.1759 18.1386 43.1759 16.0187C43.1759 13.6529 44.9701 11.4507 47.4975 11.4507C47.6116 11.4507 47.7198 11.4649 47.831 11.4713C43.2522 7.27648 37.152 4.71533 30.4519 4.71533C21.4609 4.71533 13.5507 9.32834 8.94897 16.3154C9.55278 16.3336 10.1218 16.3463 10.6052 16.3463C13.2971 16.3463 17.4639 16.0197 17.4639 16.0197C18.8513 15.9379 19.0148 17.9755 17.629 18.1396C17.629 18.1396 16.2348 18.3036 14.6834 18.3849L24.0554 46.2613L29.6874 29.37L25.6778 18.3839C24.2919 18.3027 22.979 18.1386 22.979 18.1386C21.5922 18.0573 21.7547 15.9369 23.1416 16.0187C23.1416 16.0187 27.3917 16.3453 29.9205 16.3453C32.612 16.3453 36.7793 16.0187 36.7793 16.0187C38.1677 15.9369 38.3307 17.9746 36.9444 18.1386C36.9444 18.1386 35.5472 18.3027 33.9988 18.3839L43.2993 46.0493L45.8663 37.4711C46.9789 33.9115 47.8256 31.3547 47.8256 29.1516Z" fill="#21759B"/>
<path d="M30.9035 32.7017L23.1819 55.1394C25.4874 55.8172 27.9256 56.1879 30.452 56.1879C33.449 56.1879 36.3231 55.6698 38.9983 54.729C38.9293 54.6188 38.8666 54.5018 38.8152 54.3745L30.9035 32.7017Z" fill="#21759B"/>
<path d="M53.0347 18.103C53.1454 18.9228 53.2081 19.8028 53.2081 20.7494C53.2081 23.361 52.7203 26.2968 51.2512 29.9676L43.39 52.6962C51.0411 48.2345 56.1874 39.9453 56.1874 30.4509C56.1879 25.9765 55.045 21.769 53.0347 18.103Z" fill="#21759B"/>
<path d="M30.4524 0.451172C13.9107 0.451172 0.452148 13.9087 0.452148 30.4504C0.452148 46.9941 13.9107 60.4512 30.4524 60.4512C46.9936 60.4512 60.4541 46.9941 60.4541 30.4504C60.4536 13.9087 46.9936 0.451172 30.4524 0.451172ZM30.4524 59.0761C14.6692 59.0761 1.82773 46.2346 1.82773 30.4504C1.82773 14.6673 14.6687 1.82675 30.4524 1.82675C46.2351 1.82675 59.0756 14.6673 59.0756 30.4504C59.0756 46.2346 46.2351 59.0761 30.4524 59.0761Z" fill="#21759B"/>
</svg>
